<?xml version="1.0" encoding="utf-8"?>
<!-- Generator: Adobe Illustrator 25.4.1, SVG Export Plug-In . SVG Version: 6.00 Build 0)  -->
<svg version="1.1" id="Layer_1" xmlns="http://www.w3.org/2000/svg" xmlns:xlink="http://www.w3.org/1999/xlink" x="0px" y="0px"
	 viewBox="0 0 290 250" style="enable-background:new 0 0 290 250;" xml:space="preserve">
<style type="text/css">
	.st0{fill:none;stroke:#134488;stroke-width:2;stroke-linecap:round;stroke-linejoin:round;}
	.st1{enable-background:new    ;}
	.st2{fill:#FFFFFF;}
	.st3{clip-path:url(#SVGID_00000142139119218739020580000004165236232463314581_);}
	.st4{fill:#61B342;}
	.st5{fill:#356E2E;}
	.st6{fill:#00A339;}
	.st7{fill:#C5D200;}
	.st8{fill:#FFED00;}
	.st9{fill:#8FBF21;}
	.st10{fill:#9DC868;}
	.st11{fill:#319931;}
	.st12{fill:#008D36;}
	.st13{fill:#432918;}
	.st14{fill:#134488;}
	.st15{fill:#622066;}
	.st16{opacity:0.1;fill:#B3B3B3;enable-background:new    ;}
	.st17{fill:#18B22D;}
	.st18{opacity:0.86;fill:#078413;enable-background:new    ;}
	.st19{fill:#078413;}
	.st20{opacity:0.86;fill:#18B22D;enable-background:new    ;}
	.st21{fill:#72D0EB;}
	.st22{opacity:0.7;fill:#A4C7E2;enable-background:new    ;}
	.st23{fill:#D1D3D4;}
	.st24{fill:#561D5B;}
	.st25{clip-path:url(#SVGID_00000088133718490910963940000000681788210322686388_);}
</style>
<g id="Grupo_232" transform="translate(2448.299 -6106.877)">
	<g id="Grupo_172" transform="translate(-2363.042 6124.372)">
		<g id="Grupo_170" transform="translate(0 0)">
			<path id="Caminho_214" class="st15" d="M6.68,20.68c-1.04-3.73,2.56-7.43,8.3-8.01c4.63-0.47,9.25-1.14,10.86-1.39l0.58-0.09
				h0.02l0,0c6.03-0.97,12.2-0.59,18.07,1.12c4.36,1.21,8.39,3.4,11.77,6.4c0.8,0.8,0.92,2.06,0.28,2.99
				c-0.08,0.12-0.18,0.23-0.28,0.33c-0.92,0.92-2.41,0.92-3.33,0c-0.12-0.12-10.73-10.37-30.86-5.18c-1.99,0.71-3.78,1.89-5.23,3.43
				C13.45,23.84,7.71,24.41,6.68,20.68z"/>
			<path id="Caminho_215" class="st16" d="M16.86,20.29c1.45-1.54,3.24-2.72,5.23-3.43c5.04-1.37,10.3-1.78,15.5-1.2
				c-17.81-5-24.45,6.31-26.85,2.2c-1.34-2.29,0.9-4.43,2.66-4.95c-4.81,1.04-7.67,4.39-6.73,7.77
				C7.71,24.41,13.45,23.83,16.86,20.29z"/>
		</g>
		<g id="Grupo_171" transform="translate(58.383 0)">
			<path id="Caminho_216" class="st15" d="M56.79,20.68c1.04-3.73-2.56-7.43-8.3-8.01c-4.63-0.47-9.25-1.14-10.86-1.39l-0.58-0.09
				h-0.02l0,0c-6.03-0.97-12.2-0.59-18.07,1.12c-4.36,1.21-8.38,3.4-11.77,6.4c-0.8,0.8-0.92,2.06-0.28,2.99
				c0.08,0.12,0.18,0.23,0.28,0.33c0.92,0.92,2.41,0.92,3.33,0c0.12-0.12,10.73-10.37,30.86-5.18c1.99,0.71,3.78,1.89,5.23,3.43
				C50.02,23.84,55.76,24.41,56.79,20.68z"/>
			<path id="Caminho_217" class="st16" d="M46.61,20.29c-1.45-1.54-3.24-2.72-5.23-3.43c-5.04-1.37-10.3-1.78-15.5-1.2
				c17.81-5,24.45,6.31,26.85,2.2c1.34-2.29-0.9-4.43-2.66-4.95c4.81,1.04,7.66,4.39,6.73,7.77C55.76,24.41,50.02,23.83,46.61,20.29
				z"/>
		</g>
	</g>
	<g id="Grupo_176" transform="translate(-2433.021 6106.877)">
		<g id="Grupo_173" transform="translate(39.147 0)">
			<path id="Caminho_218" class="st17" d="M15.59,12.79c-3.17,6.26-20.12,43.42,11.9,65.59c0,0,17.46-21.6-10.88-65.65
				c-0.18-0.27-0.55-0.35-0.82-0.17C15.7,12.62,15.63,12.7,15.59,12.79z"/>
			<path id="Caminho_219" class="st15" d="M27.84,80.79l-1.36-0.94c-7.23-4.79-12.93-11.55-16.44-19.48
				c-2.73-6.59-3.92-13.71-3.48-20.83C7.2,29.95,9.73,20.59,14,11.99l0,0c0.39-0.76,1.15-1.26,2-1.3c0.85-0.04,1.65,0.37,2.11,1.08
				c6.56,10.19,11.22,20.06,13.87,29.31c2.06,6.84,2.9,13.99,2.47,21.12c-0.85,11.33-5.39,17.05-5.58,17.29L27.84,80.79z
				 M16.26,15.5c-4.5,9.77-15.72,40.64,10.76,60.36c2.35-4.39,3.68-9.24,3.91-14.22C31.57,52.27,29.5,36.74,16.26,15.5L16.26,15.5z
				 M17.17,13.6L17.17,13.6L17.17,13.6z"/>
		</g>
		<path id="Caminho_220" class="st18" d="M56.18,19.75c-0.27,4.47-0.39,8.94-0.43,13.42s0.02,8.95,0.23,13.42s0.54,8.93,1.11,13.36
			c0.28,2.22,0.64,4.42,1.09,6.61c0.43,2.18,0.99,4.34,1.68,6.46l0,0c0.06,0.19-0.04,0.39-0.22,0.45c0,0,0,0,0,0
			c-0.19,0.06-0.39-0.04-0.45-0.22l0,0c-0.68-2.15-1.23-4.34-1.66-6.55c-0.43-2.21-0.78-4.43-1.04-6.66
			c-0.54-4.46-0.84-8.94-1.01-13.42s-0.2-8.96-0.12-13.45s0.24-8.96,0.54-13.44c0.01-0.08,0.08-0.15,0.16-0.14
			C56.12,19.6,56.19,19.67,56.18,19.75z"/>
		<g id="Grupo_174" transform="translate(20.544 17.528)">
			<path id="Caminho_221" class="st19" d="M9.73,12.61c-0.39-0.26-0.91-0.15-1.17,0.23c-0.08,0.12-0.13,0.27-0.14,0.42
				C7.82,23.2,6.71,81.18,60.93,92C60.93,92,71.49,54.01,9.73,12.61z"/>
			<path id="Caminho_222" class="st15" d="M62.2,94.06l-1.62-0.32C47.78,91.19,37,85.83,28.54,77.82
				c-7.19-6.96-12.7-15.48-16.09-24.9c-6.56-17.45-6.1-34.85-5.81-39.77c0.06-0.94,0.61-1.77,1.45-2.19
				c0.84-0.42,1.84-0.35,2.62,0.17c14.23,9.54,25.82,19.71,34.44,30.22c6.49,7.68,11.57,16.45,15.01,25.9
				c5.2,15.02,2.59,24.82,2.47,25.23L62.2,94.06z M10.11,15.01c-0.53,13.85,0.98,64.03,49.41,74.87c0.46-3.25,0.93-11.14-2.81-21.76
				C52.18,55.25,40.42,35.67,10.11,15.01L10.11,15.01z M8.74,14.08"/>
		</g>
		<path id="Caminho_223" class="st20" d="M34.71,39.07c0.97,3.2,2.07,6.36,3.24,9.5s2.41,6.24,3.74,9.32
			c2.63,6.15,5.6,12.15,8.9,17.97c3.28,5.82,7.06,11.35,11.3,16.53c1.06,1.29,2.17,2.53,3.32,3.75s2.33,2.39,3.56,3.51
			c2.44,2.26,5.09,4.29,7.91,6.07l0,0c0.17,0.1,0.22,0.32,0.11,0.49c0,0,0,0,0,0c-0.1,0.17-0.32,0.22-0.49,0.11l0,0
			c-2.85-1.81-5.52-3.88-7.98-6.18c-1.24-1.14-2.43-2.33-3.57-3.56c-1.15-1.23-2.26-2.49-3.32-3.79c-4.23-5.22-8-10.8-11.27-16.67
			c-3.28-5.85-6.23-11.88-8.83-18.06c-1.31-3.09-2.54-6.2-3.69-9.35c-1.15-3.15-2.24-6.32-3.2-9.53c-0.02-0.08,0.02-0.16,0.1-0.19
			C34.61,38.95,34.69,38.99,34.71,39.07L34.71,39.07z"/>
		<g id="Grupo_175" transform="translate(0 60.469)">
			<path id="Caminho_224" class="st17" d="M9.05,12.47c-0.42,0-0.77,0.33-0.77,0.75c0,0.14,0.03,0.27,0.1,0.39
				c4.48,7.82,32.41,52.25,78.81,33.53C87.19,47.14,76.33,13.16,9.05,12.47z"/>
			<path id="Caminho_225" class="st15" d="M64.96,53.48c-3.13,0-6.26-0.28-9.34-0.83c-8.92-1.7-17.34-5.43-24.6-10.88
				C17.37,31.79,9.06,18.37,6.84,14.49c-0.45-0.79-0.45-1.76,0.01-2.55c0.46-0.78,1.31-1.26,2.22-1.25
				c15.52,0.16,29.35,2.11,41.11,5.79c8.74,2.6,16.96,6.72,24.26,12.17c11.43,8.82,14.33,17.58,14.45,17.94l0.5,1.57l-1.53,0.62
				C80.59,51.81,72.82,53.4,64.96,53.48z M10.84,14.28c6.7,11.03,32.54,47.36,74,31.87c-1.32-2.75-4.89-8.82-12.82-14.87
				C62.26,23.84,43.76,14.92,10.84,14.28L10.84,14.28z"/>
		</g>
		<path id="Caminho_226" class="st18" d="M16.85,77.48c2.29,1.87,4.67,3.65,7.06,5.4s4.84,3.43,7.31,5.06s4.98,3.21,7.52,4.73
			s5.12,2.99,7.74,4.36c5.22,2.79,10.64,5.21,16.2,7.24l0.52,0.19l0.53,0.18l1.05,0.35l1.05,0.35c0.35,0.12,0.71,0.21,1.06,0.32
			c0.71,0.21,1.42,0.43,2.13,0.62l2.15,0.55c2.87,0.69,5.78,1.2,8.71,1.51l0,0c0.2,0.02,0.34,0.19,0.32,0.39c0,0,0,0,0,0
			c-0.02,0.19-0.19,0.34-0.39,0.32c0,0,0,0,0,0l0,0c-2.97-0.33-5.9-0.85-8.8-1.57l-2.16-0.57c-0.72-0.2-1.43-0.43-2.14-0.64
			c-0.35-0.11-0.71-0.21-1.07-0.33l-1.06-0.36l-1.06-0.36L63,105.04l-0.52-0.2c-5.58-2.07-11-4.53-16.23-7.36
			c-2.62-1.39-5.2-2.88-7.74-4.42s-5.05-3.13-7.51-4.79s-4.9-3.36-7.29-5.11s-4.75-3.56-7.04-5.45c-0.06-0.05-0.07-0.15-0.02-0.21
			C16.69,77.43,16.78,77.42,16.85,77.48C16.85,77.47,16.85,77.47,16.85,77.48L16.85,77.48z"/>
	</g>
	<g id="Grupo_179" transform="translate(-2361.531 6218.165)">
		<path id="Caminho_227" class="st2" d="M108.19,50.73c0,31.42-22.36,75.51-49.95,75.51S8.28,82.15,8.28,50.73
			s22.36-38.27,49.95-38.27S108.19,19.31,108.19,50.73z"/>
		<g id="Grupo_177" transform="translate(0 0)">
			<path id="Caminho_228" class="st15" d="M58.23,128.03c-6.98,0-13.89-2.61-20.53-7.75c-5.95-4.61-11.44-11.03-16.31-19.08
				C12.21,86,6.5,66.67,6.5,50.73c0-7.83,1.38-14.56,4.11-20.03c2.55-5.11,6.48-9.41,11.35-12.4c8.33-5.2,19.86-7.62,36.27-7.62
				s27.93,2.42,36.26,7.62c4.87,2.99,8.8,7.29,11.35,12.4c2.73,5.46,4.11,12.2,4.11,20.03c0,15.94-5.7,35.27-14.89,50.46
				c-4.87,8.05-10.36,14.47-16.31,19.08C72.12,125.42,65.21,128.03,58.23,128.03z M58.23,14.24c-15.71,0-26.64,2.25-34.38,7.08
				c-9.28,5.79-13.79,15.41-13.79,29.41c0,15.33,5.51,33.95,14.38,48.62c5.67,9.38,17.6,25.11,33.8,25.11s28.13-15.73,33.8-25.11
				c8.87-14.67,14.38-33.29,14.38-48.62c0-14-4.51-23.62-13.79-29.41C84.87,16.49,73.95,14.24,58.23,14.24L58.23,14.24z"/>
		</g>
		<g id="Grupo_178" transform="translate(18.677 0)">
			<path id="Caminho_229" class="st15" d="M39.56,128.03c-8.71,0-17.16-9.63-23.78-27.12C9.88,84.82,6.74,67.86,6.5,50.73
				c0-15.16,3.17-25.68,9.68-32.18c5.39-5.37,12.82-7.87,23.37-7.87s17.98,2.5,23.37,7.87c6.52,6.49,9.68,17.02,9.68,32.18
				c-0.24,17.13-3.38,34.09-9.28,50.17C56.71,118.39,48.27,128.03,39.56,128.03z M39.56,14.24c-9.55,0-16.18,2.17-20.86,6.83
				c-5.81,5.79-8.64,15.49-8.64,29.66c0,32.2,14.31,73.73,29.5,73.73s29.5-41.54,29.5-73.73c0-14.17-2.82-23.87-8.64-29.66
				C55.74,16.41,49.11,14.24,39.56,14.24L39.56,14.24z"/>
		</g>
	</g>
	<g id="Grupo_181" transform="translate(-2397.622 6186.754)">
		<ellipse id="Elipse_20" class="st21" cx="21.07" cy="32.49" rx="12.8" ry="20.03"/>
		<path id="Caminho_230" class="st22" d="M21.07,45.29c-6.28,0-11.5-7.08-12.59-16.41c-0.14,1.2-0.21,2.41-0.21,3.62
			c0,11.06,5.73,20.03,12.8,20.03s12.8-8.97,12.8-20.03c0-1.21-0.07-2.42-0.21-3.62C32.57,38.21,27.35,45.29,21.07,45.29z"/>
		<g id="Grupo_180" transform="translate(0 0)">
			<path id="Caminho_231" class="st15" d="M21.07,54.3c-4.05,0-7.79-2.37-10.55-6.69c-2.73-4.56-4.13-9.8-4.03-15.12
				c-0.1-5.32,1.3-10.56,4.03-15.12c2.75-4.31,6.5-6.69,10.55-6.69s7.79,2.38,10.55,6.69c2.73,4.56,4.13,9.8,4.03,15.12
				c0.1,5.32-1.29,10.56-4.03,15.12C28.87,51.93,25.12,54.3,21.07,54.3z M21.07,14.24c-2.79,0-5.47,1.79-7.55,5.05
				c-2.37,3.99-3.57,8.56-3.47,13.2c-0.1,4.64,1.1,9.21,3.47,13.2c2.08,3.25,4.76,5.05,7.55,5.05s5.47-1.79,7.55-5.05
				c2.37-3.99,3.57-8.56,3.47-13.2c0.1-4.64-1.1-9.21-3.47-13.2C26.54,16.04,23.86,14.24,21.07,14.24L21.07,14.24z"/>
		</g>
	</g>
	<g id="Grupo_183" transform="translate(-2250.732 6186.754)">
		<ellipse id="Elipse_21" class="st21" cx="21.07" cy="32.49" rx="12.8" ry="20.03"/>
		<path id="Caminho_232" class="st22" d="M21.08,45.29c-6.28,0-11.5-7.08-12.59-16.41c-0.14,1.2-0.21,2.41-0.21,3.62
			c0,11.06,5.73,20.03,12.8,20.03s12.8-8.97,12.8-20.03c0-1.21-0.07-2.42-0.21-3.62C32.58,38.21,27.35,45.29,21.08,45.29z"/>
		<g id="Grupo_182" transform="translate(0 0)">
			<path id="Caminho_233" class="st15" d="M21.07,54.3c-4.05,0-7.79-2.37-10.55-6.69C7.8,43.05,6.4,37.81,6.5,32.49
				c-0.1-5.32,1.3-10.56,4.03-15.12c2.76-4.31,6.5-6.69,10.55-6.69s7.79,2.38,10.55,6.69c2.73,4.56,4.13,9.8,4.03,15.12
				c0.1,5.32-1.29,10.56-4.03,15.12C28.87,51.93,25.12,54.3,21.07,54.3z M21.07,14.24c-2.79,0-5.47,1.79-7.55,5.05
				c-2.37,3.99-3.57,8.56-3.47,13.2c-0.1,4.64,1.1,9.21,3.47,13.2c2.08,3.25,4.76,5.05,7.55,5.05s5.47-1.79,7.55-5.05
				c2.37-3.99,3.57-8.56,3.47-13.2c0.1-4.64-1.1-9.21-3.47-13.2C26.55,16.04,23.86,14.24,21.07,14.24L21.07,14.24z"/>
		</g>
	</g>
	<path id="Caminho_234" class="st2" d="M-2228.06,6216.79c0,37.77-33.68,48.43-75.24,48.43s-75.24-10.65-75.24-48.43
		c0-49.54,33.69-71.53,75.24-71.53S-2228.06,6167.25-2228.06,6216.79z"/>
	<path id="Caminho_235" class="st23" d="M-2303.3,6259.63c-40.34,0-73.26-11.25-75.15-46.87c-0.06,1.1-0.09,2.19-0.09,3.29
		c0,37.77,33.69,48.43,75.24,48.43c41.55,0,75.24-10.65,75.24-48.43c0-1.1-0.03-2.2-0.09-3.29
		C-2230.04,6248.38-2262.96,6259.63-2303.3,6259.63z"/>
	<g id="Grupo_184" transform="translate(-2386.812 6132.795)">
		<path id="Caminho_236" class="st15" d="M83.51,134.2c-9.91,0.09-19.81-0.67-29.59-2.28c-9.58-1.69-17.81-4.38-24.45-7.98
			C14.23,115.67,6.5,102.24,6.5,84c0-12.57,2.04-23.8,6.05-33.4c3.63-8.84,9.33-16.68,16.62-22.87
			c13.2-11.15,31.99-17.04,54.35-17.04s41.15,5.89,54.35,17.04c7.29,6.18,12.99,14.03,16.62,22.87c4.01,9.6,6.05,20.83,6.05,33.4
			c0,18.24-7.73,31.67-22.97,39.94c-6.65,3.61-14.88,6.29-24.45,7.98C103.33,133.53,93.43,134.29,83.51,134.2z M83.51,14.24
			c-46.68,0-73.46,25.42-73.46,69.75c0,31.39,24.03,46.65,73.46,46.65s73.46-15.26,73.46-46.65
			C156.97,39.67,130.2,14.24,83.51,14.24L83.51,14.24z"/>
	</g>
	<g id="Grupo_185" transform="translate(-2347.876 6132.795)">
		<path id="Caminho_237" class="st15" d="M80.88,85.77c-0.98,0-1.78-0.8-1.78-1.78c0-23.77-3.5-41.94-10.4-54.02
			c-5.88-10.29-14.22-15.73-24.12-15.73s-18.25,5.44-24.12,15.73c-6.9,12.08-10.4,30.26-10.4,54.02c0,0.98-0.8,1.78-1.78,1.78
			c0,0,0,0,0,0c-0.98,0-1.78-0.8-1.78-1.78c0,0,0,0,0,0c0-24.39,3.66-43.16,10.87-55.79c6.55-11.46,15.96-17.52,27.21-17.52
			s20.67,6.06,27.21,17.52c7.21,12.62,10.87,31.4,10.87,55.79C82.65,84.97,81.86,85.77,80.88,85.77z"/>
	</g>
	<g id="Grupo_187" transform="translate(-2373.26 6158.423)">
		<path id="Caminho_238_00000106844741361708957290000003029051855419288452_" class="st15" d="M132.08,47.87
			c0-26.22-27.81-35.69-62.12-35.69S7.85,21.65,7.85,47.87s27.81,49.11,62.12,49.11S132.08,74.08,132.08,47.87z"/>
		<path id="Caminho_239" class="st24" d="M69.96,91.36c33.06,0,60.09-21.88,62-46.31c0.07,0.93,0.11,1.86,0.11,2.81
			c0,26.22-27.81,49.11-62.12,49.11S7.84,74.08,7.84,47.86c0-0.95,0.04-1.89,0.11-2.81C9.87,69.48,36.9,91.36,69.96,91.36z"/>
		<g id="Grupo_186_00000049928667938499079680000010500692764713275059_" transform="translate(0 0)">
			<path id="Caminho_240_00000042728539200990220540000009271880373422860458_" class="st15" d="M69.96,98.46L69.96,98.46
				c-8.37,0.02-16.68-1.35-24.59-4.06c-7.3-2.47-14.11-6.19-20.14-10.98c-5.6-4.39-10.25-9.87-13.67-16.11
				C8.27,61.35,6.53,54.66,6.5,47.85c-0.12-6.23,1.68-12.35,5.16-17.52c3.58-4.96,8.36-8.92,13.89-11.53
				c10.75-5.39,25.7-8.12,44.41-8.12s33.66,2.73,44.41,8.12c5.53,2.6,10.31,6.57,13.89,11.53c3.48,5.17,5.28,11.29,5.16,17.52
				c-0.03,6.81-1.77,13.5-5.06,19.46c-3.43,6.23-8.08,11.71-13.67,16.11c-6.03,4.79-12.84,8.51-20.14,10.98
				C86.64,97.11,78.33,98.48,69.96,98.46z M69.96,14.24c-18.16,0-32.57,2.6-42.82,7.74c-11.34,5.68-17.08,14.38-17.08,25.87
				c0,25.5,27.43,47.05,59.91,47.05s59.91-21.55,59.91-47.05c0-11.48-5.75-20.19-17.08-25.87C102.53,16.85,88.12,14.24,69.96,14.24z
				"/>
		</g>
	</g>
	<g id="Grupo_193" transform="translate(-2448.299 6260.209)">
		<path id="Caminho_241" class="st2" d="M6.5,36.21c0,13.11,10.63,23.74,23.74,23.74c0,0,0,0,0,0H256.2
			c13.11,0,23.74-10.63,23.74-23.74l0,0c0-13.11-10.63-23.74-23.74-23.74H30.24C17.13,12.47,6.5,23.1,6.5,36.21L6.5,36.21z"/>
		<path id="Caminho_242" class="st21" d="M257.98,12.47H232.2v47.48h25.79c13.11,0,23.73-10.63,23.74-23.74
			C281.72,23.1,271.09,12.47,257.98,12.47z"/>
		<path id="Caminho_243" class="st22" d="M256.2,53.88H30.24c-11.94,0-22.02-8.86-23.55-20.7c-0.13,1-0.19,2.02-0.19,3.03
			c0,13.11,10.63,23.74,23.74,23.74c0,0,0,0,0,0H256.2c13.11,0,23.74-10.63,23.74-23.74c0,0,0,0,0,0c0-1.01-0.06-2.02-0.19-3.03
			C278.22,45.02,268.14,53.88,256.2,53.88z"/>
		<g id="Grupo_188" transform="translate(0.003 0)">
			<path id="Caminho_244" class="st15" d="M257.98,61.72H32.02C17.93,61.71,6.52,50.29,6.5,36.21c0.02-14.09,11.43-25.5,25.52-25.52
				h225.96c14.09,0.02,25.5,11.43,25.52,25.52C283.48,50.29,272.07,61.71,257.98,61.72z M32.02,14.24
				c-12.12,0.01-21.95,9.84-21.96,21.96c0.01,12.12,9.84,21.95,21.96,21.96h225.96c12.12-0.01,21.95-9.84,21.96-21.96
				c-0.01-12.12-9.84-21.95-21.96-21.96H32.02z"/>
		</g>
		<g id="Grupo_189" transform="translate(223.918 0)">
			<path id="Caminho_245" class="st15" d="M8.28,61.72c-0.98,0-1.78-0.8-1.78-1.78V12.47c0-0.98,0.8-1.78,1.78-1.78
				c0.98,0,1.78,0.8,1.78,1.78c0,0,0,0,0,0v47.48C10.06,60.93,9.26,61.72,8.28,61.72C8.28,61.72,8.28,61.72,8.28,61.72z"/>
		</g>
		<g id="Grupo_192" transform="translate(236.253 14.104)">
			<g id="Grupo_190">
				<path id="Caminho_246" class="st15" d="M16.15,29.98c-2.56,0.01-5.02-1.01-6.82-2.83c-3.76-3.77-3.76-9.87,0-13.64
					c1.81-1.82,4.26-2.83,6.82-2.83c2.56-0.01,5.02,1.01,6.82,2.83c3.76,3.77,3.76,9.87,0,13.65C21.16,28.97,18.7,29.99,16.15,29.98
					z M16.15,14.25c-1.62,0-3.17,0.64-4.31,1.78c-2.37,2.38-2.37,6.23,0,8.62c1.14,1.15,2.69,1.79,4.31,1.79
					c1.62,0,3.17-0.64,4.31-1.78c2.38-2.38,2.38-6.24,0-8.62C19.31,14.88,17.76,14.24,16.15,14.25L16.15,14.25z"/>
			</g>
			<g id="Grupo_191" transform="translate(13.431 13.436)">
				<path id="Caminho_247" class="st15" d="M14.42,20.38c-0.47,0-0.92-0.19-1.26-0.52l-6.14-6.14c-0.69-0.69-0.69-1.82,0-2.52
					c0.69-0.69,1.82-0.69,2.52,0l6.14,6.14c0.69,0.69,0.69,1.82,0,2.52C15.34,20.2,14.89,20.38,14.42,20.38z"/>
			</g>
		</g>
	</g>
	<g id="Grupo_195" transform="translate(-2382.605 6244.651)">
		<path id="Caminho_248" class="st2" d="M42.03,22.39c1.5,6.68-4.8,13.18-14.06,14.52S10,33.91,8.5,27.22s4.8-13.18,14.06-14.52
			S40.53,15.71,42.03,22.39z"/>
		<path id="Caminho_249" class="st23" d="M42.03,22.39c-0.87-3.24-3.08-5.95-6.07-7.45c0.07,0.23,0.14,0.47,0.19,0.71
			c1.5,6.68-4.8,13.18-14.06,14.52c-4.59,0.72-9.29-0.06-13.4-2.23c1.93,6.28,10.36,10.26,19.28,8.97
			C37.23,35.57,43.52,29.08,42.03,22.39z"/>
		<g id="Grupo_194" transform="translate(0 0)">
			<path id="Caminho_250" class="st15" d="M24.62,38.93c-4.02,0.04-7.98-1-11.46-3.02c-3.17-1.78-5.48-4.77-6.39-8.29
				c-0.68-3.14,0.01-6.41,1.9-9.01c2.77-4.02,7.74-6.81,13.64-7.66c1.19-0.17,2.4-0.26,3.6-0.26c4.02-0.04,7.99,1,11.47,3.02
				c3.17,1.78,5.48,4.77,6.39,8.29c0.68,3.13-0.01,6.41-1.9,9c-2.77,4.02-7.74,6.81-13.64,7.66C27.03,38.84,25.82,38.93,24.62,38.93
				z M25.91,14.24c-1.04,0-2.07,0.07-3.1,0.22c-4.84,0.7-9.04,3-11.22,6.16c-1.32,1.78-1.81,4.04-1.36,6.21
				c1.11,4.95,7.16,8.54,14.38,8.54c1.04,0,2.07-0.08,3.1-0.22c4.84-0.7,9.04-3,11.22-6.16c1.32-1.78,1.81-4.04,1.36-6.21
				C39.19,17.84,33.14,14.24,25.91,14.24L25.91,14.24z"/>
		</g>
	</g>
	<g id="Grupo_197" transform="translate(-2274.522 6244.651)">
		<path id="Caminho_251" class="st2" d="M8.5,22.39c-1.49,6.68,4.8,13.18,14.06,14.52s17.98-3,19.47-9.69s-4.8-13.18-14.06-14.52
			S10,15.71,8.5,22.39z"/>
		<path id="Caminho_252" class="st23" d="M8.5,22.39c0.87-3.24,3.08-5.95,6.07-7.45c-0.07,0.23-0.14,0.47-0.19,0.71
			c-1.49,6.68,4.8,13.18,14.06,14.52c4.59,0.73,9.29-0.06,13.4-2.23c-1.93,6.28-10.36,10.26-19.28,8.97
			C13.3,35.57,7.01,29.08,8.5,22.39z"/>
		<g id="Grupo_196" transform="translate(0 0)">
			<path id="Caminho_253" class="st15" d="M25.91,38.93L25.91,38.93c-1.21,0-2.41-0.09-3.61-0.26c-5.89-0.85-10.86-3.64-13.64-7.66
				c-1.89-2.59-2.58-5.87-1.9-9.01c0.91-3.52,3.22-6.52,6.39-8.29c3.48-2.02,7.44-3.07,11.46-3.02c1.2,0,2.41,0.09,3.6,0.26
				c5.89,0.85,10.86,3.64,13.64,7.66c1.89,2.59,2.58,5.87,1.9,9.01c-0.91,3.52-3.22,6.52-6.39,8.29
				C33.89,37.93,29.94,38.97,25.91,38.93z M24.62,14.24c-7.23,0-13.28,3.59-14.39,8.54c-0.45,2.17,0.04,4.43,1.36,6.21
				c2.18,3.16,6.37,5.46,11.22,6.16c1.03,0.15,2.06,0.22,3.1,0.22l0,0c7.23,0,13.27-3.59,14.38-8.54c0.45-2.17-0.04-4.43-1.36-6.21
				c-2.18-3.16-6.37-5.46-11.21-6.16C26.69,14.32,25.66,14.24,24.62,14.24L24.62,14.24z"/>
		</g>
	</g>
	<g id="Grupo_219_00000132062313360303979140000005023101892577261246_" transform="translate(-2369.215 6161.749)">
		<g>
			<defs>
				<path id="SVGID_00000013889431876763070400000013283186862895269263_" d="M125.34,44.83c0-25.08-26.6-34.14-59.42-34.14
					S6.5,19.75,6.5,44.83s26.6,46.98,59.42,46.98S125.34,69.91,125.34,44.83z"/>
			</defs>
			<clipPath id="SVGID_00000083803905375468564190000016000993105565676456_">
				<use xlink:href="#SVGID_00000013889431876763070400000013283186862895269263_"  style="overflow:visible;"/>
			</clipPath>
			
				<g id="Grupo_218_00000009566048371304459610000009008136129141590457_" transform="translate(0 0)" style="clip-path:url(#SVGID_00000083803905375468564190000016000993105565676456_);">
				<g id="Grupo_217_00000155132364215414776890000011483562723661282749_" transform="translate(-0.297 -16.662)">
					<g id="Grupo_216_00000183952087084195082740000000110689709288380318_">
						<g id="Grupo_202_00000089546857660530154820000015010811158171583929_" transform="translate(32.478 124.306)">
							<path id="Caminho_258_00000167354018609899380120000001656586069024341939_" class="st4" d="M14.68,10.73
								c0,0-16.5,5.67-1.82,4.64c0,0-0.99,7.96,2.95,0.44c0,0,11.46,10.56,0.71-4.8L14.68,10.73z"/>
							<g id="Grupo_201_00000125580557035326373610000013982308678840106924_">
								<path id="Caminho_259_00000158722701324155848440000001396540010005399229_" class="st5" d="M16.11,10.93
									c-2.19-0.33-1.73-0.31,0.49-0.05c0.54,0.72,1.09,1.47,1.78,2.45c0.67,0.96,1.42,2.06,2.13,3.3c0.4,0.65,0.72,1.35,0.92,2.09
									c0.09,0.3,0,0.63-0.24,0.84c-0.27,0.14-0.59,0.15-0.87,0.02c-0.38-0.15-0.75-0.34-1.09-0.57c-0.66-0.43-1.3-0.9-1.91-1.4
									l-0.9-0.75l-0.44-0.38c-0.08-0.07-0.03-0.02-0.05-0.04c0.11-0.19-0.27,0.52-0.52,0.93c-0.27,0.46-0.57,0.9-0.9,1.31
									c-0.16,0.19-0.33,0.37-0.53,0.52c-0.29,0.26-0.71,0.3-1.05,0.11c-0.25-0.2-0.41-0.49-0.47-0.81
									c-0.05-0.23-0.08-0.45-0.1-0.68c-0.03-0.43-0.03-0.85,0-1.28l0.05-0.62c0.01-0.14,0.01-0.12,0.01-0.13v-0.02H12.4H12.4
									h-0.09l-0.19,0.01l-0.77,0.03c-0.51,0.02-1,0.02-1.49,0.01c-0.97,0.04-1.93-0.1-2.85-0.39c-0.22-0.08-0.6-0.42-0.49-0.78
									c0.08-0.26,0.24-0.5,0.45-0.66c0.32-0.26,0.67-0.49,1.04-0.68c0.63-0.33,1.28-0.63,1.94-0.9c2.4-0.97,3.9-1.39,3.93-1.41
									c1.73-0.6,0.51-0.15-2.17,1.01c-0.67,0.29-1.42,0.64-2.23,1.04c-0.4,0.2-0.82,0.43-1.23,0.68c-0.41,0.23-0.78,0.52-1.1,0.87
									c-0.12,0.16-0.07,0.18,0,0.24c0.2,0.1,0.43,0.17,0.65,0.19c0.53,0.07,1.07,0.11,1.61,0.1c0.56,0,1.12-0.02,1.69-0.05
									l2.19-0.15l-0.07,0.61l-0.04,0.47l-0.03,0.61c-0.02,0.4-0.01,0.8,0.02,1.2c0.01,0.18,0.05,0.37,0.09,0.54
									c0.02,0.07,0.04,0.14,0.08,0.2c0.03,0.06,0.02,0.03,0.02,0.04c0.19-0.12,0.36-0.27,0.5-0.45c0.31-0.39,0.59-0.8,0.85-1.24
									l0.38-0.65l0.61-1.12L16.64,16l0.55,0.48c0.36,0.32,0.73,0.62,1.09,0.92c0.67,0.57,1.39,1.08,2.16,1.5
									c0.08,0.04,0.16,0.07,0.25,0.1c0.03,0.01,0.05,0.01,0.08,0.01c0.06-0.03,0.07-0.04,0.05-0.18c-0.08-0.37-0.2-0.73-0.36-1.08
									c-0.31-0.7-0.67-1.36-1.01-1.96c-1.38-2.41-2.49-4.09-2.92-4.77L16.11,10.93z"/>
							</g>
						</g>
						<g id="Grupo_204_00000039844932915733518520000015945321827756221375_" transform="translate(77.429 122.94)">
							<path id="Caminho_260_00000127752290819079193830000012486923109244624055_" class="st4" d="M11.39,10.71
								c0,0,17.32,2.07,2.75,4.15c0,0,2.65,7.58-2.8,1.05c0,0-8.98,12.73-1.7-4.54L11.39,10.71z"/>
							<g id="Grupo_203_00000170261931826492355480000012772987814737307570_">
								<path id="Caminho_261_00000074404541525334957290000004350191680667572881_" class="st5" d="M10.04,11.22
									c2.12-0.79,1.56-0.53-0.3,0.24c-0.51,1.38-1.47,3.74-2.24,6.41c-0.21,0.66-0.33,1.35-0.37,2.04
									c0.01,0.14,0.02,0.11,0.05,0.14c0.06,0,0.01,0.02,0.19-0.08c0.29-0.21,0.56-0.44,0.8-0.71c0.52-0.56,1.02-1.14,1.48-1.74
									l0.7-0.92l0.97-1.36c0.82,0.97,0.98,1.15,1.36,1.56c0.33,0.36,0.68,0.69,1.06,1c0.14,0.11,0.29,0.21,0.45,0.29
									c0.18,0.07,0.11,0.04,0.13,0.04c0.03-0.1,0.05-0.2,0.05-0.3c0-0.19-0.01-0.37-0.04-0.56c-0.06-0.39-0.13-0.78-0.23-1.16
									l-0.15-0.57l-0.14-0.45l-0.19-0.56l1.97-0.28c0.49-0.08,0.97-0.16,1.44-0.25c0.87-0.12,1.71-0.38,2.5-0.77
									c0.26-0.17,0.18-0.26-0.18-0.51c-0.33-0.19-0.68-0.34-1.04-0.46c-0.71-0.25-1.39-0.43-2.02-0.59
									c-2.5-0.6-4.04-0.84-4.07-0.86c-1.82-0.22-0.52-0.19,2.38,0.21c0.72,0.1,1.55,0.24,2.45,0.43c0.45,0.1,0.91,0.21,1.4,0.35
									c0.53,0.13,1.03,0.36,1.48,0.66c0.16,0.12,0.28,0.3,0.32,0.5c0.03,0.23-0.05,0.45-0.21,0.61c-0.23,0.21-0.5,0.38-0.79,0.5
									c-0.53,0.21-1.08,0.39-1.64,0.52c-0.56,0.14-1.12,0.26-1.7,0.36l-0.86,0.15l-0.38,0.06l-0.03,0.01l0.01,0.02l0.01,0.02
									l0.04,0.13l0.18,0.62c0.12,0.42,0.21,0.84,0.27,1.27c0.03,0.23,0.05,0.46,0.04,0.69c0,0.14-0.02,0.27-0.06,0.4
									c-0.05,0.19-0.15,0.36-0.3,0.48c-0.16,0.13-0.37,0.19-0.57,0.16c-0.15-0.02-0.3-0.06-0.44-0.13
									c-0.21-0.1-0.41-0.23-0.59-0.38c-0.42-0.34-0.82-0.72-1.18-1.12l-0.52-0.58l-0.12-0.15c-0.05-0.06-0.02-0.02-0.03-0.03
									l-0.01-0.01l-0.01,0c-0.01,0.01,0.02-0.02-0.03,0.03l-0.11,0.15l-0.45,0.59c-0.3,0.39-0.61,0.76-0.92,1.13
									c-0.59,0.73-1.25,1.4-1.99,1.98c-0.11,0.07-0.22,0.14-0.33,0.19c-0.16,0.08-0.35,0.12-0.53,0.09
									c-0.38-0.04-0.52-0.52-0.51-0.79c0.01-0.43,0.08-0.86,0.2-1.28c0.21-0.78,0.46-1.49,0.7-2.15c1.01-2.62,1.88-4.4,2.23-5.17
									L10.04,11.22z"/>
							</g>
						</g>
						<g id="Grupo_206_00000139255757596965195820000015676651233182884016_" transform="translate(3.394)">
							<path id="Caminho_262_00000103254339433853168910000013327505832807908492_" class="st6" d="M63.65,138.68
								c-18.34,0.52-32.55-5.11-42.26-16.72C10.56,109,0.17,81.5,12.2,24.13c0.23-1.08,0.42-2.02,0.48-2.36
								c0.29-1.81,1.54-3.31,3.26-3.92c0.49-0.18,1.01-0.27,1.54-0.29c1.28-0.04,2.52,0.42,3.47,1.27
								c0.17,0.15,17.57,15.32,41.04,14.66C75.62,33.1,89.85,23,102.19,12.3c0.87-0.76,1.98-1.19,3.14-1.22
								c0.52-0.01,1.03,0.05,1.53,0.19c1.63,0.47,2.9,1.73,3.4,3.35c0.82,2.7,18.61,70.85-5.51,104.3
								C95.66,131.52,81.84,138.17,63.65,138.68z"/>
							<g id="Grupo_205_00000168817063200750743760000006815990343529115065_">
								<path id="Caminho_263_00000142894986272028693280000001739457032549721008_" class="st5" d="M78.07,136.76
									c-2.99,0.75-6.03,1.27-9.09,1.57c-2.28,0.22-3.8,0.27-4.61,0.3c-1.63,0.03-0.43,0.05,3.08-0.22
									c2.31-0.19,4.61-0.5,6.89-0.93c3.3-0.61,6.54-1.53,9.67-2.74c3.99-1.53,7.74-3.62,11.15-6.2c4.02-3.07,7.5-6.79,10.3-11.01
									c3.13-4.79,5.56-10.01,7.2-15.5c1.81-6,3.02-12.17,3.63-18.41c1.34-12.94,0.76-26.86-1.06-40.92
									c-0.92-7.03-2.14-14.11-3.69-21.15c-0.39-1.75-0.8-3.51-1.24-5.25c-0.17-0.85-0.44-1.68-0.81-2.47
									c-0.41-0.73-1.01-1.34-1.74-1.75c-1.48-0.84-3.31-0.8-4.74,0.12c-0.36,0.24-0.7,0.51-1.01,0.8l-1.03,0.88l-2.07,1.74
									c-5.45,4.65-11.34,8.78-17.58,12.31c-6.2,3.38-12.99,5.92-19.93,5.97c-6.77,0.08-13.5-1.03-19.89-3.27
									c-6.19-2.15-12.06-5.14-17.42-8.91c-1.3-0.91-2.61-1.93-3.78-2.91c-1.2-0.86-2.74-1.1-4.15-0.63
									c-1.39,0.47-2.48,1.57-2.93,2.96c-0.1,0.36-0.18,0.72-0.24,1.09l-0.23,1.14l-0.47,2.26c-1.24,6.01-2.27,11.92-3.1,17.73
									C7.54,54.34,6.89,65.43,7.23,76.52c0.24,9.66,1.92,19.23,4.97,28.41c2.51,7.6,6.72,14.52,12.32,20.23
									c4.32,4.26,9.46,7.58,15.12,9.77c3.61,1.39,7.37,2.4,11.19,2.99c2.66,0.41,4.14,0.5,4.27,0.53c2.83,0.23,5.66,0.31,8.5,0.25
									c0.35-0.02-1.64,0.14-5.61,0c-5.81-0.17-11.57-1.21-17.07-3.08c-3.92-1.35-7.64-3.24-11.05-5.61
									c-3.97-2.78-7.47-6.19-10.36-10.09c-3.2-4.4-5.76-9.25-7.58-14.38c-2-5.59-3.41-11.37-4.22-17.25
									C5.98,76.1,6.22,62.91,7.7,49.5c0.74-6.71,1.79-13.48,3.09-20.27l1.02-5.09c0.17-0.85,0.36-1.7,0.51-2.54
									c0.16-0.93,0.56-1.79,1.16-2.52c1.23-1.47,3.14-2.18,5.03-1.87c0.93,0.16,1.8,0.55,2.53,1.15c0.66,0.57,1.33,1.1,2.03,1.62
									c11.1,8.18,24.77,13.31,38.31,13.07c6.74-0.07,13.16-2.48,18.94-5.54C86,24.4,91.37,20.75,96.38,16.64
									c1.24-1,2.47-2.01,3.68-3.03l1.8-1.54c0.63-0.56,1.39-0.98,2.21-1.2c1.65-0.45,3.42-0.08,4.76,0.99
									c0.66,0.52,1.18,1.19,1.53,1.95c0.29,0.74,0.52,1.5,0.69,2.27c1.49,5.98,2.64,11.9,3.6,17.69
									c1.84,10.97,2.84,22.07,2.98,33.19c0.18,9.7-0.77,19.39-2.83,28.87c-1.66,7.86-4.77,15.34-9.17,22.06
									c-3.42,5.04-7.81,9.35-12.93,12.65c-3.27,2.08-6.79,3.76-10.47,4.99C79.65,136.4,78.2,136.71,78.07,136.76z"/>
							</g>
						</g>
						<path id="Caminho_264_00000118381754054619999460000006604296876051912848_" class="st7" d="M66.88,132.07
							c-17.1,0.48-30.36-4.54-39.39-14.92c-10.09-11.6-19.75-36.2-8.47-87.59c0.21-0.97,0.4-1.81,0.45-2.11
							c0.29-1.64,1.46-3,3.04-3.52c0.46-0.16,0.94-0.24,1.43-0.26c1.18-0.04,2.34,0.36,3.24,1.13c0.16,0.13,16.38,13.7,38.26,13.08
							c12.72-0.36,26-9.41,37.53-19.01c0.83-0.68,1.86-1.07,2.93-1.1c0.48-0.01,0.96,0.04,1.42,0.17c1.49,0.4,2.69,1.53,3.16,3
							c0.76,2.41,17.28,63.41-5.25,93.39C96.75,125.63,83.85,131.59,66.88,132.07z"/>
						<g id="Grupo_207_00000156583637593164240450000003208060752396882831_" transform="translate(12.243 16.049)">
							<path id="Caminho_265_00000164481955943809624550000005044619981408891059_" class="st8" d="M11.42,27.43
								c-1.06,0.03-2.1-0.29-2.95-0.92c-1.52-1.11-2.25-3-1.87-4.84l1.49-7.17c0.33-1.61,1.46-2.93,3-3.51
								c0.5-0.19,1.02-0.29,1.55-0.3c1.09-0.03,2.15,0.31,3.02,0.96l4.8,3.62c1.29,0.97,2,2.52,1.89,4.13
								c-0.11,1.61-1.02,3.06-2.42,3.85l-6.28,3.55C12.97,27.2,12.2,27.41,11.42,27.43z"/>
						</g>
						<g id="Grupo_208_00000098943787027612688700000015095272780060271000_" transform="translate(88.63 10.572)">
							<path id="Caminho_266_00000163770168496635261430000002090632471197352382_" class="st8" d="M17.89,29.63
								c1.06-0.03,2.08-0.41,2.9-1.08c1.46-1.19,2.08-3.12,1.59-4.94l-0.86-9.37c-0.42-1.59-1.63-2.84-3.2-3.33
								c-0.51-0.16-1.03-0.23-1.56-0.22c-1.09,0.03-2.13,0.43-2.96,1.13L8.2,18c-1.23,1.04-1.85,2.64-1.66,4.24
								c0.2,1.6,1.19,2.99,2.63,3.71l6.47,3.2C16.34,29.49,17.11,29.65,17.89,29.63z"/>
						</g>
						<path id="Caminho_267_00000031192626037413929130000005254832810772462996_" class="st8" d="M27.49,117.14
							c9.04,10.38,22.29,15.4,39.39,14.92c16.96-0.48,29.87-6.44,38.34-17.72c1.47-1.97,2.78-4.05,3.91-6.22
							c-9.7,3.87-25.56,5.71-42.91-10.54c0,0-19.54,17.91-45.03,10.06C22.89,111.06,25,114.25,27.49,117.14z"/>
						<g id="Grupo_209_00000096760203644311509930000011542701852467721384_" transform="translate(29.579 94.709)">
							<path id="Caminho_268_00000127015205455516122690000013961538137362549945_" class="st9" d="M16.47,15.91
								c0,0,5.5,4.92,10.71-0.3C27.18,15.61,21.89,25.62,16.47,15.91z"/>
							<path id="Caminho_269_00000043458019014455111630000001612345388592530342_" class="st9" d="M30.71,10.99
								c0,0,5.5,4.92,10.71-0.3C41.42,10.69,36.14,20.71,30.71,10.99z"/>
							<path id="Caminho_270_00000008832296244339843750000006520525957487540642_" class="st9" d="M44.66,15.67
								c0,0,5.5,4.92,10.71-0.3C55.36,15.37,50.08,25.39,44.66,15.67z"/>
							<path id="Caminho_271_00000037689648420679700930000009571014995879600289_" class="st9" d="M36.38,22.11
								c0,0,5.49,4.92,10.71-0.3C47.09,21.81,41.81,31.83,36.38,22.11z"/>
							<path id="Caminho_272_00000149375690713949202330000008847288317814494372_" class="st9" d="M21.75,23.36
								c0,0,5.49,4.92,10.71-0.3C32.46,23.06,27.18,33.08,21.75,23.36z"/>
							<path id="Caminho_273_00000054253000638266810010000003454425659883020674_" class="st9" d="M29.86,30.75
								c0,0,5.5,4.92,10.71-0.3C40.56,30.45,35.28,40.47,29.86,30.75z"/>
							<path id="Caminho_274_00000012432283917409634740000012666908905007166902_" class="st9" d="M53.35,23.89
								c0,0,5.5,4.92,10.71-0.3C64.06,23.58,58.77,33.6,53.35,23.89z"/>
							<path id="Caminho_275_00000139976827523751684960000006766873844357340576_" class="st9" d="M6.5,22.38
								c0,0,5.5,4.92,10.71-0.3C17.21,22.08,11.93,32.1,6.5,22.38z"/>
							<path id="Caminho_276_00000176012520712341175400000000786685092183648398_" class="st9" d="M43.08,29.81
								c0,0,5.49,4.92,10.71-0.3C53.79,29.51,48.51,39.53,43.08,29.81z"/>
							<path id="Caminho_277_00000064324431819706290610000010920960428709517745_" class="st9" d="M15.18,30.32
								c0,0,5.5,4.92,10.71-0.3C25.89,30.02,20.61,40.04,15.18,30.32z"/>
						</g>
						<g id="Grupo_210_00000136393232334818120880000011138284975731565715_" transform="translate(0 70.9)">
							<path id="Caminho_278_00000101092865950190371280000011248323503809968271_" class="st9" d="M16.47,15.9
								c0,0,5.49,4.92,10.71-0.3C27.17,15.6,21.89,25.62,16.47,15.9z"/>
							<path id="Caminho_279_00000110457481656917627030000016383068723481676976_" class="st9" d="M30.71,10.99
								c0,0,5.5,4.92,10.71-0.3C41.42,10.69,36.14,20.71,30.71,10.99z"/>
							<path id="Caminho_280_00000150068276886894293720000017739747079978781855_" class="st9" d="M44.66,15.67
								c0,0,5.5,4.92,10.71-0.3C55.36,15.37,50.08,25.39,44.66,15.67z"/>
							<path id="Caminho_281_00000124851737399253605800000011365392576581047993_" class="st9" d="M36.38,22.11
								c0,0,5.5,4.92,10.71-0.3C47.09,21.81,41.81,31.82,36.38,22.11z"/>
							<path id="Caminho_282_00000088848182485595199180000013873469703626139047_" class="st9" d="M21.75,23.37
								c0,0,5.49,4.92,10.71-0.3C32.46,23.06,27.18,33.08,21.75,23.37z"/>
							<path id="Caminho_283_00000106123591605064076790000010720979018817192065_" class="st9" d="M29.86,30.75
								c0,0,5.5,4.92,10.71-0.3C40.56,30.45,35.28,40.47,29.86,30.75z"/>
							<path id="Caminho_284_00000158006545068001657000000015344983379041147793_" class="st9" d="M53.35,23.89
								c0,0,5.5,4.92,10.71-0.3C64.06,23.58,58.77,33.6,53.35,23.89z"/>
							<path id="Caminho_285_00000005244216321375112490000015748398011674351746_" class="st9" d="M6.5,22.38
								c0,0,5.5,4.92,10.71-0.3C17.21,22.08,11.93,32.1,6.5,22.38z"/>
							<path id="Caminho_286_00000144325206621640532550000016669116516905952423_" class="st9" d="M43.08,29.81
								c0,0,5.5,4.92,10.71-0.3C53.79,29.51,48.51,39.53,43.08,29.81z"/>
							<path id="Caminho_287_00000075854293532766107150000008746558237464954504_" class="st9" d="M15.18,30.32
								c0,0,5.5,4.92,10.71-0.3C25.89,30.02,20.61,40.04,15.18,30.32z"/>
						</g>
						<g id="Grupo_211_00000042726475959218041700000013978964301472038320_" transform="translate(63.383 70.9)">
							<path id="Caminho_288_00000016791579727532138900000016575185801050723467_" class="st9" d="M16.47,15.9
								c0,0,5.49,4.92,10.71-0.3C27.18,15.6,21.89,25.62,16.47,15.9z"/>
							<path id="Caminho_289_00000044173163157548334910000015052381339721358493_" class="st9" d="M30.71,10.99
								c0,0,5.5,4.92,10.71-0.3C41.42,10.69,36.14,20.71,30.71,10.99z"/>
							<path id="Caminho_290_00000147910121575476857300000005016834813139237289_" class="st9" d="M44.66,15.67
								c0,0,5.49,4.92,10.71-0.3C55.36,15.37,50.08,25.39,44.66,15.67z"/>
							<path id="Caminho_291_00000065763635442057911710000011963338853741734547_" class="st9" d="M36.38,22.11
								c0,0,5.49,4.92,10.71-0.3C47.09,21.81,41.81,31.82,36.38,22.11z"/>
							<path id="Caminho_292_00000054266086400707015450000009795169777050951579_" class="st9" d="M21.75,23.37
								c0,0,5.49,4.92,10.71-0.3C32.46,23.06,27.18,33.08,21.75,23.37z"/>
							<path id="Caminho_293_00000174566191449473473080000013576692198314117260_" class="st9" d="M29.86,30.75
								c0,0,5.5,4.92,10.71-0.3C40.56,30.45,35.28,40.47,29.86,30.75z"/>
							<path id="Caminho_294_00000163065356308885681350000011542358373263062962_" class="st9" d="M53.35,23.89
								c0,0,5.5,4.92,10.71-0.3C64.06,23.58,58.77,33.6,53.35,23.89z"/>
							<path id="Caminho_295_00000183239148931964970600000007548355160880531378_" class="st9" d="M6.5,22.38
								c0,0,5.5,4.92,10.71-0.3C17.21,22.08,11.93,32.1,6.5,22.38z"/>
							<path id="Caminho_296_00000164507897229109475310000015417376036702280074_" class="st9" d="M43.08,29.81
								c0,0,5.49,4.92,10.71-0.3C53.79,29.51,48.51,39.53,43.08,29.81z"/>
							<path id="Caminho_297_00000029748406930208948960000014425668895828729231_" class="st9" d="M15.18,30.32
								c0,0,5.5,4.92,10.71-0.3C25.89,30.02,20.61,40.04,15.18,30.32z"/>
						</g>
						<g id="Grupo_215_00000125581461450368487840000016528700646150629026_" transform="translate(14.142 31.202)">
							<g id="Grupo_212_00000094612923913718577640000011668990379038501269_" transform="translate(1.102 0.104)">
								<path id="Caminho_298_00000139276427804218679930000007667050628879094937_" class="st2" d="M71.74,10.7
									c-9.14,0.26-17.3,5.82-20.87,14.24c-4.04-8.2-12.49-13.3-21.64-13.04C16.32,12.26,6.15,23.02,6.51,35.93
									c0.36,12.91,11.12,23.08,24.03,22.72c0,0,0,0,0,0c9.14-0.26,17.3-5.82,20.87-14.24c4.04,8.2,12.5,13.3,21.64,13.04
									c12.91-0.36,23.08-11.13,22.72-24.04v0C95.41,20.5,84.65,10.33,71.74,10.7z"/>
							</g>
							<path id="Caminho_299_00000014612239456129219060000003936763565154068143_" class="st10" d="M73.36,10.7
								c-9.3,0.22-17.64,5.79-21.39,14.31c-4.23-8.29-12.86-13.39-22.16-13.08c-13.1,0.23-23.53,11.04-23.3,24.14c0,0,0,0,0,0
								c0.51,13.09,11.53,23.29,24.62,22.79c9.3-0.22,17.64-5.79,21.39-14.31c4.23,8.29,12.86,13.38,22.16,13.08
								c13.1-0.23,23.53-11.04,23.3-24.14v0C97.47,20.4,86.45,10.2,73.36,10.7z M73.33,56.25c-8.74,0.29-16.85-4.5-20.82-12.29
								c-3.53,8-11.36,13.24-20.1,13.44c-12.3,0.47-22.65-9.11-23.12-21.41c-0.22-12.3,9.58-22.46,21.89-22.68
								c8.74-0.29,16.85,4.5,20.82,12.29c3.53-8,11.36-13.23,20.1-13.44c12.3-0.47,22.65,9.11,23.12,21.41
								C95.42,45.88,85.63,56.03,73.33,56.25L73.33,56.25z"/>
							<g id="Grupo_214_00000045619876494843273880000013044116861900981131_" transform="translate(39.274 25.113)">
								<path id="Caminho_300_00000078767814487767218060000009726989420771870890_" class="st11" d="M13.08,29.36
									c-0.81-0.02-1.53-0.5-1.88-1.23L6.92,17.46c-0.48-0.94-0.4-2.07,0.21-2.93C7.4,14.18,9.81,11.1,13.25,11
									c1.49-0.04,3.72,0.49,5.88,3.27c0.63,0.85,0.73,1.97,0.28,2.92L14.92,28.1c-0.32,0.72-1.02,1.21-1.81,1.25
									C13.1,29.36,13.09,29.36,13.08,29.36z"/>
								<path id="Caminho_301_00000141432748588553589470000007369286389532844953_" class="st9" d="M13.01,26.29
									c-0.74,0.01-1.42-0.38-1.8-1.01l-4.06-8.8c-0.46-0.77-0.37-1.75,0.22-2.42c1.51-1.7,3.61-2.75,5.88-2.94
									c2.19-0.01,4.26,0.98,5.62,2.69c0.59,0.67,0.7,1.64,0.26,2.41l-4.34,9.04c-0.36,0.63-1.02,1.02-1.74,1.04
									C13.03,26.29,13.02,26.29,13.01,26.29z"/>
								<g id="Grupo_213_00000072255117136435936590000002305020735879086518_">
									<path id="Caminho_302_00000054951488994234662680000002646383483371962530_" class="st12" d="M14.37,25.74
										c-0.3,0.27-0.68,0.45-1.08,0.51c-0.23,0.02-0.31,0.02-0.25,0c0.19-0.03,0.38-0.08,0.56-0.15c0.39-0.15,0.73-0.42,0.97-0.77
										l4.24-9.27l0.01-0.01v-0.01c0.32-0.58,0.27-1.29-0.11-1.83c-0.48-0.57-1.04-1.07-1.65-1.5c-1.19-0.85-2.64-1.26-4.1-1.16
										c-1.27,0.12-2.5,0.56-3.56,1.29c-0.51,0.34-0.99,0.72-1.44,1.14c-0.21,0.18-0.39,0.39-0.53,0.62
										c-0.13,0.22-0.2,0.46-0.22,0.71c-0.02,0.25,0.01,0.49,0.09,0.73c0.05,0.13,0.11,0.25,0.17,0.37l0.17,0.39L8.3,18.3
										l1.17,2.71l1.67,3.95c0.18,0.51,0.55,0.93,1.05,1.15c0.27,0.11,0.55,0.17,0.84,0.19c-0.19,0.04-0.39,0.03-0.58-0.03
										c-0.61-0.13-1.14-0.53-1.42-1.09l-1.21-2.45l-1.52-3.11l-0.84-1.73l-0.43-0.9c-0.07-0.14-0.15-0.33-0.22-0.44
										C6.7,16.38,6.63,16.2,6.58,16c-0.21-0.8,0.01-1.66,0.57-2.27c0.49-0.54,1.05-1.03,1.65-1.46c1.2-0.88,2.61-1.42,4.09-1.56
										c1.75-0.12,3.48,0.42,4.85,1.51c0.32,0.25,0.62,0.51,0.91,0.8c0.3,0.28,0.56,0.6,0.78,0.94c0.42,0.75,0.41,1.66-0.03,2.4
										l0.01-0.02c-1.42,2.82-2.64,5.17-3.51,6.83l-1.02,1.94C14.76,25.36,14.58,25.57,14.37,25.74z"/>
								</g>
							</g>
						</g>
					</g>
					<path id="Caminho_303_00000152946000180934926930000011199759211512419456_" class="st13" d="M96.09,63.77
						c-0.83,4.62-5.25,7.69-9.87,6.86c0,0,0,0-0.01,0c-4.62-0.83-7.69-5.25-6.86-9.87c0,0,0-0.01,0-0.01
						c0.83-4.62,5.26-7.69,9.88-6.86h0C93.85,54.72,96.92,59.14,96.09,63.77C96.09,63.76,96.09,63.77,96.09,63.77z"/>
					<path id="Caminho_304_00000070083253192850832210000003395235149139456176_" class="st2" d="M92.35,60.21
						c-0.28,1.54-1.75,2.56-3.29,2.29c0,0,0,0,0,0c-1.54-0.28-2.56-1.75-2.29-3.29c0,0,0,0,0,0c0.28-1.54,1.75-2.56,3.29-2.29
						c0,0,0,0,0,0C91.6,57.2,92.62,58.67,92.35,60.21z"/>
					<path id="Caminho_305_00000147192856004420618230000009683251745206709166_" class="st13" d="M53.6,67.91
						c-0.83,4.62-5.25,7.69-9.87,6.86c0,0-0.01,0-0.01,0c-4.62-0.83-7.69-5.25-6.86-9.87c0,0,0-0.01,0-0.01
						c0.83-4.62,5.25-7.69,9.87-6.86c0,0,0.01,0,0.01,0C51.36,58.86,54.43,63.28,53.6,67.91C53.6,67.91,53.6,67.91,53.6,67.91z"/>
					<path id="Caminho_306_00000085223902808620410240000000781186133627721357_" class="st2" d="M49.86,64.35
						c-0.28,1.54-1.75,2.56-3.29,2.29c-1.54-0.28-2.56-1.75-2.29-3.29c0,0,0,0,0,0c0.28-1.54,1.75-2.56,3.29-2.29c0,0,0,0,0,0
						C49.11,61.34,50.14,62.81,49.86,64.35z"/>
				</g>
			</g>
		</g>
	</g>
</g>
</svg>
