<?xml version="1.0" encoding="utf-8"?>
<!-- Generator: Adobe Illustrator 25.4.1, SVG Export Plug-In . SVG Version: 6.00 Build 0)  -->
<svg version="1.1" id="Layer_1" xmlns="http://www.w3.org/2000/svg" xmlns:xlink="http://www.w3.org/1999/xlink" x="0px" y="0px"
	 viewBox="0 0 135.92 137.68" style="enable-background:new 0 0 135.92 137.68;" xml:space="preserve">
<style type="text/css">
	.st0{fill:none;stroke:#134488;stroke-width:2;stroke-linecap:round;stroke-linejoin:round;}
	.st1{enable-background:new    ;}
	.st2{fill:#FFFFFF;}
	.st3{clip-path:url(#SVGID_00000100364942245064561400000012675039726218766232_);}
	.st4{fill:#61B342;}
	.st5{fill:#356E2E;}
	.st6{fill:#00A339;}
	.st7{fill:#C5D200;}
	.st8{fill:#FFED00;}
	.st9{fill:#8FBF21;}
	.st10{fill:#9DC868;}
	.st11{fill:#319931;}
	.st12{fill:#008D36;}
	.st13{fill:#432918;}
	.st14{fill:#134488;}
	.st15{fill:#622066;}
	.st16{opacity:0.1;fill:#B3B3B3;enable-background:new    ;}
	.st17{fill:#18B22D;}
	.st18{opacity:0.86;fill:#078413;enable-background:new    ;}
	.st19{fill:#078413;}
	.st20{opacity:0.86;fill:#18B22D;enable-background:new    ;}
	.st21{fill:#72D0EB;}
	.st22{opacity:0.7;fill:#A4C7E2;enable-background:new    ;}
	.st23{fill:#D1D3D4;}
	.st24{fill:#561D5B;}
	.st25{clip-path:url(#SVGID_00000061434947210388267820000005260329858108515991_);}
</style>
<g id="Grupo_225" transform="translate(244.692 861.614)">
	<path id="Caminho_166" class="st2" d="M-181.48-837.62c-1.27,0-2.3,1.03-2.3,2.3v85.1c0,1.27,1.03,2.3,2.3,2.3h9.48
		c1.27,0,2.3-1.03,2.3-2.3v-85.1c0-1.27-1.03-2.3-2.3-2.3H-181.48z M-174.3-752.52h-4.88v-80.51h4.88V-752.52z"/>
	<path id="Caminho_167" class="st2" d="M-131.46-785.7l8.04-7.12c0.95-0.84,1.04-2.29,0.2-3.24c-0.06-0.07-0.13-0.14-0.2-0.2
		l-8.04-7.12c-0.42-0.37-0.96-0.58-1.52-0.58h-32.14c-1.27,0-2.29,1.03-2.29,2.29c0,0,0,0,0,0v14.23c0,1.27,1.02,2.3,2.29,2.3
		c0,0,0,0,0,0h32.14C-132.42-785.12-131.88-785.33-131.46-785.7z M-162.83-799.36h28.97l5.44,4.82l-5.44,4.82h-28.98L-162.83-799.36
		z"/>
	<path id="Caminho_168" class="st2" d="M-165.13-827.21c-1.27,0-2.29,1.03-2.29,2.29c0,0,0,0,0,0v14.23c0,1.27,1.02,2.3,2.29,2.3
		c0,0,0,0,0,0h32.14c0.56,0,1.1-0.21,1.52-0.58l8.04-7.12c0.95-0.84,1.04-2.29,0.2-3.24c-0.06-0.07-0.13-0.14-0.2-0.2l-8.04-7.12
		c-0.42-0.37-0.96-0.58-1.52-0.58L-165.13-827.21z M-162.83-812.98v-9.64h28.97l5.44,4.82l-5.44,4.82L-162.83-812.98z"/>
	<path id="Caminho_169" class="st2" d="M-222-808.97c0.42,0.37,0.96,0.58,1.52,0.58h32.14c1.27,0,2.3-1.03,2.3-2.3v-14.23
		c0-1.27-1.03-2.3-2.3-2.3h-32.14c-0.56,0-1.1,0.2-1.52,0.58l-8.04,7.12c-0.95,0.84-1.04,2.29-0.2,3.24c0.06,0.07,0.13,0.14,0.2,0.2
		L-222-808.97z M-190.63-822.62v9.64h-28.98l-5.44-4.82l5.44-4.82L-190.63-822.62z"/>
</g>
</svg>
