<?xml version="1.0" encoding="utf-8"?>
<!-- Generator: Adobe Illustrator 25.4.1, SVG Export Plug-In . SVG Version: 6.00 Build 0)  -->
<svg version="1.1" id="Layer_1" xmlns="http://www.w3.org/2000/svg" xmlns:xlink="http://www.w3.org/1999/xlink" x="0px" y="0px"
	 viewBox="0 0 135.92 137.68" style="enable-background:new 0 0 135.92 137.68;" xml:space="preserve">
<style type="text/css">
	.st0{fill:none;stroke:#134488;stroke-width:2;stroke-linecap:round;stroke-linejoin:round;}
	.st1{enable-background:new    ;}
	.st2{fill:#FFFFFF;}
	.st3{clip-path:url(#SVGID_00000162317856986783820010000007716022010657438089_);}
	.st4{fill:#61B342;}
	.st5{fill:#356E2E;}
	.st6{fill:#00A339;}
	.st7{fill:#C5D200;}
	.st8{fill:#FFED00;}
	.st9{fill:#8FBF21;}
	.st10{fill:#9DC868;}
	.st11{fill:#319931;}
	.st12{fill:#008D36;}
	.st13{fill:#432918;}
	.st14{fill:#134488;}
	.st15{fill:#622066;}
	.st16{opacity:0.1;fill:#B3B3B3;enable-background:new    ;}
	.st17{fill:#18B22D;}
	.st18{opacity:0.86;fill:#078413;enable-background:new    ;}
	.st19{fill:#078413;}
	.st20{opacity:0.86;fill:#18B22D;enable-background:new    ;}
	.st21{fill:#72D0EB;}
	.st22{opacity:0.7;fill:#A4C7E2;enable-background:new    ;}
	.st23{fill:#D1D3D4;}
	.st24{fill:#561D5B;}
	.st25{clip-path:url(#SVGID_00000183227724111802857430000011703470334849757087_);}
</style>
<g id="Grupo_222" transform="translate(70.768 861.614)">
	<path id="Caminho_102" class="st2" d="M26.24-839.57h-58.07c-4.53-0.35-8.48,3.04-8.83,7.57c-0.02,0.21-0.02,0.41-0.02,0.62v5.32
		c-0.02,0.27-0.03,0.43-0.03,0.43v71.46c0,0,0,0.07,0,0.21c0.1,4.52,3.85,8.11,8.38,8c0.16,0,0.32-0.01,0.48-0.02h51.33
		c3.88,0.38,7.47-2.1,8.47-5.87c4-0.48,7.04-3.82,7.15-7.85v-71.88c-0.1-4.52-3.85-8.11-8.38-8
		C26.56-839.59,26.4-839.58,26.24-839.57z M29.88-825.4c-0.01,0.14-0.01,0.28,0,0.42v62.72H26.8v-62.63c0-0.09,0-0.35,0-0.66
		c0.21-1.22-0.09-2.47-0.82-3.46c-1.25-1-2.86-1.46-4.45-1.29H-22v3.67h41.48c1.12,0,2.51,0,2.69,2.03v70.41
		c-0.18,2.03-1.57,2.03-2.69,2.03h-51.33c-1.15,0-2.57,0-2.7-2.17v-70.19l0,0v-6.76c0.13-2.12,1.55-2.12,2.69-2.12h7.17
		c0.19,0,0.37,0,0.58,0h45.63c2.44-0.21,4.86,0.61,6.68,2.24C29.55-829.55,30.15-827.47,29.88-825.4L29.88-825.4z"/>
	<g class="st1">
		<path class="st2" d="M-3.53-790.29H-16l-2.37,7.12h-7.57l12.86-34.54h6.59l12.93,34.54h-7.57L-3.53-790.29z M-14.08-796.05h8.63
			l-4.34-12.93L-14.08-796.05z"/>
	</g>
</g>
</svg>
