<?xml version="1.0" encoding="utf-8"?>
<!-- Generator: Adobe Illustrator 25.4.1, SVG Export Plug-In . SVG Version: 6.00 Build 0)  -->
<svg version="1.1" id="Layer_1" xmlns="http://www.w3.org/2000/svg" xmlns:xlink="http://www.w3.org/1999/xlink" x="0px" y="0px"
	 viewBox="0 0 135.92 137.68" style="enable-background:new 0 0 135.92 137.68;" xml:space="preserve">
<style type="text/css">
	.st0{fill:none;stroke:#134488;stroke-width:2;stroke-linecap:round;stroke-linejoin:round;}
	.st1{enable-background:new    ;}
	.st2{fill:#FFFFFF;}
	.st3{clip-path:url(#SVGID_00000070092040740756599500000009155821538794004923_);}
	.st4{fill:#61B342;}
	.st5{fill:#356E2E;}
	.st6{fill:#00A339;}
	.st7{fill:#C5D200;}
	.st8{fill:#FFED00;}
	.st9{fill:#8FBF21;}
	.st10{fill:#9DC868;}
	.st11{fill:#319931;}
	.st12{fill:#008D36;}
	.st13{fill:#432918;}
	.st14{fill:#134488;}
	.st15{fill:#622066;}
	.st16{opacity:0.1;fill:#B3B3B3;enable-background:new    ;}
	.st17{fill:#18B22D;}
	.st18{opacity:0.86;fill:#078413;enable-background:new    ;}
	.st19{fill:#078413;}
	.st20{opacity:0.86;fill:#18B22D;enable-background:new    ;}
	.st21{fill:#72D0EB;}
	.st22{opacity:0.7;fill:#A4C7E2;enable-background:new    ;}
	.st23{fill:#D1D3D4;}
	.st24{fill:#561D5B;}
	.st25{clip-path:url(#SVGID_00000088848648371979522930000017441390987693474477_);}
</style>
<g id="Grupo_224" transform="translate(341.066 862.479)">
	<path id="Caminho_170" class="st2" d="M-273.12-745.03c24.15-0.09,43.65-19.74,43.56-43.88c-0.08-21.55-15.85-39.83-37.15-43.07
		c1.79-3.44,0.46-7.68-2.98-9.48c-3.44-1.79-7.68-0.46-9.48,2.98c-1.05,2.02-1.06,4.43-0.02,6.45c-23.9,3.46-40.47,25.64-37,49.54
		C-313.09-761.05-294.78-745.13-273.12-745.03L-273.12-745.03z M-272.94-837.56c1.3,0,2.36,1.06,2.36,2.36
		c0,1.3-1.06,2.36-2.36,2.36c-1.3,0-2.36-1.06-2.36-2.36l0,0C-275.3-836.51-274.24-837.56-272.94-837.56L-272.94-837.56z
		 M-273.12-827.79c21.57,0,39.05,17.48,39.05,39.05s-17.48,39.05-39.05,39.05c-21.57,0-39.05-17.48-39.05-39.05c0,0,0,0,0,0
		C-312.15-810.3-294.68-827.76-273.12-827.79z"/>
	<path id="Caminho_171" class="st2" d="M-273.12-756.36c17.88,0,32.38-14.5,32.37-32.38s-14.5-32.38-32.38-32.37
		c-17.88,0-32.37,14.5-32.37,32.37C-305.48-770.87-291-756.38-273.12-756.36z M-244.48-788.74c0,15.82-12.82,28.64-28.65,28.64
		c-15.82,0-28.64-12.82-28.64-28.64c0-15.82,12.82-28.64,28.65-28.64l0,0C-257.31-817.37-244.49-804.55-244.48-788.74z"/>
	<path id="Caminho_172" class="st2" d="M-287.34-772.19c0.19,0,0.37-0.06,0.53-0.16l12.11-8.37c4.42,0.86,8.71-2.03,9.57-6.45
		c0.1-0.52,0.15-1.04,0.15-1.57c0-0.27-0.01-0.54-0.04-0.8l10.28-16.22c0.28-0.44,0.15-1.01-0.29-1.29c-0.31-0.19-0.69-0.19-1,0
		l-16.11,10.21c-0.34-0.04-0.67-0.07-1.01-0.07c-4.51,0-8.17,3.66-8.17,8.17c0,0.89,0.15,1.77,0.44,2.62l-7.28,12.53
		c-0.26,0.45-0.1,1.02,0.34,1.28c0.14,0.08,0.3,0.12,0.47,0.13L-287.34-772.19z M-269.72-796.15l11.19-7.1l-7.12,11.23
		c-0.81-1.82-2.25-3.29-4.05-4.13L-269.72-796.15z M-273.13-792.24c1.93,0,3.5,1.57,3.5,3.5s-1.57,3.5-3.5,3.5
		c-1.93,0-3.5-1.57-3.5-3.5C-276.63-790.67-275.07-792.24-273.13-792.24L-273.13-792.24z M-276.87-781.48l-7.55,5.23l4.56-7.87
		C-279.1-783.01-278.07-782.11-276.87-781.48L-276.87-781.48z"/>
	<path id="Caminho_173" class="st2" d="M-300.5-788.74c0,0.52,0.42,0.93,0.93,0.93h6.9c0.52,0,0.93-0.42,0.93-0.93
		s-0.42-0.93-0.93-0.93h-6.9C-300.08-789.67-300.5-789.25-300.5-788.74z"/>
	<path id="Caminho_174" class="st2" d="M-253.21-787.81h6.9c0.52,0,0.93-0.42,0.93-0.93c0-0.52-0.42-0.93-0.93-0.93h-6.9
		c-0.52,0-0.93,0.42-0.93,0.93C-254.14-788.23-253.72-787.81-253.21-787.81z"/>
	<path id="Caminho_175" class="st2" d="M-272.93-807.53c0.52,0,0.93-0.42,0.93-0.93v-6.9c0-0.52-0.42-0.93-0.93-0.93
		c-0.52,0-0.93,0.42-0.93,0.93v6.9C-273.86-807.95-273.45-807.53-272.93-807.53z"/>
	<path id="Caminho_176" class="st2" d="M-272.93-769.94c-0.52,0-0.93,0.42-0.93,0.93v6.9c0,0.52,0.42,0.93,0.93,0.93
		c0.52,0,0.93-0.42,0.93-0.93v-6.9C-271.99-769.53-272.41-769.94-272.93-769.94z"/>
</g>
</svg>
