<?xml version="1.0" encoding="utf-8"?>
<!-- Generator: Adobe Illustrator 25.4.1, SVG Export Plug-In . SVG Version: 6.00 Build 0)  -->
<svg version="1.1" id="Layer_1" xmlns="http://www.w3.org/2000/svg" xmlns:xlink="http://www.w3.org/1999/xlink" x="0px" y="0px"
	 viewBox="0 0 290 347.92" style="enable-background:new 0 0 290 347.92;" xml:space="preserve">
<style type="text/css">
	.st0{enable-background:new    ;}
	.st1{fill:#FFFFFF;}
	.st2{clip-path:url(#SVGID_00000072991777721302200750000016166753049267599024_);}
	.st3{fill:#61B342;}
	.st4{fill:#356E2E;}
	.st5{fill:#00A339;}
	.st6{fill:#C5D200;}
	.st7{fill:#FFED00;}
	.st8{fill:#8FBF21;}
	.st9{fill:#9DC868;}
	.st10{fill:#319931;}
	.st11{fill:#008D36;}
	.st12{fill:#432918;}
</style>
<g>
	<g>
		<g class="st0">
			<path class="st1" d="M54.29,248.98H33.1c0.08,3.34,0.98,5.92,2.7,7.74c1.72,1.82,4.08,2.73,7.09,2.73c3.38,0,6.49-1.11,9.32-3.34
				v4.51c-2.64,1.92-6.13,2.87-10.46,2.87c-4.24,0-7.57-1.36-10-4.09c-2.42-2.73-3.63-6.56-3.63-11.51c0-4.67,1.32-8.48,3.97-11.42
				c2.65-2.94,5.94-4.41,9.86-4.41s6.97,1.27,9.12,3.81c2.15,2.54,3.22,6.07,3.22,10.58V248.98z M49.36,244.9
				c-0.02-2.77-0.69-4.93-2.01-6.48c-1.32-1.54-3.15-2.32-5.5-2.32c-2.27,0-4.19,0.81-5.77,2.43c-1.58,1.62-2.56,3.74-2.93,6.36
				H49.36z"/>
			<path class="st1" d="M95.48,262.78h-4.81v-17.12c0-6.37-2.33-9.56-6.98-9.56c-2.4,0-4.39,0.9-5.96,2.71
				c-1.57,1.81-2.36,4.09-2.36,6.84v17.12h-4.81v-30.02h4.81v4.98h0.12c2.27-3.79,5.55-5.69,9.85-5.69c3.28,0,5.79,1.06,7.53,3.18
				c1.74,2.12,2.61,5.18,2.61,9.19V262.78z"/>
			<path class="st1" d="M118.35,262.78h-4.81v-44.44h4.81V262.78z"/>
			<path class="st1" d="M139.55,225.15c-0.86,0-1.59-0.29-2.2-0.88c-0.61-0.59-0.91-1.33-0.91-2.23s0.3-1.65,0.91-2.24
				c0.61-0.6,1.34-0.89,2.2-0.89c0.88,0,1.63,0.3,2.24,0.89c0.61,0.6,0.92,1.34,0.92,2.24c0,0.86-0.31,1.59-0.92,2.2
				C141.17,224.84,140.43,225.15,139.55,225.15z M141.89,262.78h-4.81v-30.02h4.81V262.78z"/>
			<path class="st1" d="M186.25,260.38c0,11.02-5.28,16.53-15.83,16.53c-3.71,0-6.96-0.7-9.73-2.11v-4.81
				c3.38,1.88,6.61,2.81,9.67,2.81c7.39,0,11.08-3.93,11.08-11.78v-3.28h-0.12c-2.29,3.83-5.73,5.75-10.32,5.75
				c-3.73,0-6.74-1.33-9.01-4c-2.28-2.67-3.42-6.25-3.42-10.74c0-5.1,1.23-9.16,3.68-12.17s5.81-4.51,10.07-4.51
				c4.05,0,7.04,1.62,9,4.87h0.12v-4.16h4.81V260.38z M181.44,249.21v-4.43c0-2.38-0.81-4.43-2.42-6.13
				c-1.61-1.7-3.62-2.55-6.02-2.55c-2.97,0-5.3,1.08-6.98,3.24c-1.68,2.16-2.52,5.18-2.52,9.07c0,3.34,0.81,6.01,2.42,8.02
				c1.61,2,3.75,3,6.4,3c2.7,0,4.89-0.96,6.58-2.87S181.44,252.2,181.44,249.21z"/>
			<path class="st1" d="M229.9,262.78h-4.81v-17.29c0-6.25-2.33-9.38-6.98-9.38c-2.35,0-4.32,0.9-5.92,2.71
				c-1.6,1.81-2.4,4.13-2.4,6.96v17h-4.81v-44.44h4.81v19.41h0.12c2.31-3.79,5.59-5.69,9.85-5.69c6.76,0,10.14,4.07,10.14,12.22
				V262.78z"/>
			<path class="st1" d="M261.89,262.49c-1.13,0.63-2.63,0.94-4.48,0.94c-5.26,0-7.89-2.93-7.89-8.79v-17.76h-5.16v-4.1h5.16v-7.33
				l4.81-1.55v8.88h7.56v4.1h-7.56v16.91c0,2.01,0.34,3.45,1.03,4.31c0.68,0.86,1.82,1.29,3.4,1.29c1.21,0,2.26-0.33,3.14-1V262.49z
				"/>
		</g>
		<g class="st0">
			<path class="st1" d="M81.26,316.58v14.48h-9.47v-42.03h14.83c10.59,0,15.89,4.47,15.89,13.4c0,4.22-1.52,7.64-4.56,10.25
				c-3.04,2.61-7.1,3.91-12.18,3.91H81.26z M81.26,296.29v13.1h3.72c5.04,0,7.56-2.21,7.56-6.63c0-4.32-2.52-6.48-7.56-6.48H81.26z"
				/>
			<path class="st1" d="M109.87,331.06v-42.03h14.89c14.93,0,22.39,6.83,22.39,20.49c0,6.55-2.04,11.77-6.11,15.68
				c-4.07,3.91-9.5,5.86-16.28,5.86H109.87z M119.34,296.73v26.64h4.69c4.1,0,7.32-1.23,9.66-3.69c2.33-2.46,3.5-5.81,3.5-10.05
				c0-4.01-1.16-7.16-3.47-9.45c-2.32-2.3-5.56-3.44-9.75-3.44H119.34z"/>
			<path class="st1" d="M193.88,331.73c-1.04,0-2.02-0.14-2.95-0.41c-0.93-0.27-1.81-0.65-2.64-1.12c-0.83-0.47-1.62-1.02-2.36-1.66
				c-0.74-0.63-1.45-1.31-2.11-2.04c-0.72,0.59-1.59,1.19-2.61,1.82c-1.02,0.63-2.16,1.19-3.44,1.69c-1.28,0.5-2.69,0.91-4.24,1.23
				c-1.54,0.32-3.2,0.48-4.95,0.48c-2.29,0-4.4-0.27-6.35-0.82c-1.94-0.55-3.62-1.36-5.03-2.45c-1.41-1.08-2.51-2.43-3.3-4.03
				c-0.79-1.6-1.19-3.46-1.19-5.57c0-1.66,0.3-3.14,0.89-4.44s1.37-2.44,2.33-3.42c0.96-0.98,2.04-1.82,3.25-2.52
				c1.21-0.7,2.44-1.29,3.69-1.76c-0.61-0.47-1.22-1.01-1.83-1.63c-0.61-0.62-1.17-1.29-1.66-2.02c-0.49-0.73-0.88-1.53-1.19-2.39
				c-0.3-0.86-0.45-1.77-0.45-2.73c0-1.54,0.31-2.91,0.94-4.1c0.63-1.19,1.5-2.2,2.62-3.02c1.12-0.82,2.47-1.45,4.03-1.88
				c1.56-0.43,3.28-0.64,5.16-0.64c1.8,0,3.44,0.23,4.94,0.67c1.49,0.45,2.78,1.07,3.85,1.88c1.07,0.8,1.91,1.76,2.49,2.89
				c0.59,1.12,0.88,2.36,0.88,3.71c0,2.17-0.65,4.05-1.95,5.64c-1.3,1.59-3.13,2.89-5.5,3.88c0.94,0.43,1.84,0.92,2.7,1.47
				c0.86,0.55,1.7,1.17,2.52,1.88c0.82,0.7,1.62,1.5,2.4,2.39c0.78,0.89,1.55,1.91,2.32,3.06c1.6-2.01,2.75-4.16,3.44-6.43
				c0.69-2.28,1.04-4.65,1.04-7.11c0-0.74-0.04-1.46-0.13-2.14c-0.09-0.68-0.23-1.32-0.43-1.91h7.89c0.21,0.63,0.37,1.23,0.47,1.82
				c0.1,0.59,0.15,1.28,0.15,2.08c0,1.9-0.2,3.74-0.6,5.54s-0.96,3.52-1.69,5.16c-0.72,1.64-1.6,3.19-2.62,4.66
				c-1.03,1.47-2.15,2.83-3.39,4.1c0.96,1,1.94,1.76,2.96,2.3c1.02,0.54,1.97,0.81,2.87,0.81c0.94,0,1.89-0.1,2.87-0.31
				c0.98-0.2,1.83-0.49,2.55-0.86v6.98c-1.07,0.43-2.14,0.75-3.18,0.95C196.34,331.63,195.17,331.73,193.88,331.73z M169.05,324.72
				c1.15,0,2.24-0.11,3.25-0.34c1.02-0.22,1.97-0.52,2.87-0.89c0.9-0.37,1.73-0.8,2.51-1.29c0.77-0.49,1.48-1,2.12-1.52
				c-1-1.56-1.98-2.89-2.96-3.97c-0.98-1.09-1.94-2.01-2.9-2.79c-0.96-0.77-1.91-1.42-2.86-1.95c-0.95-0.53-1.9-1.01-2.86-1.44
				c-0.8,0.39-1.57,0.83-2.3,1.3c-0.73,0.48-1.38,1.04-1.95,1.67c-0.57,0.64-1.02,1.36-1.36,2.17c-0.34,0.81-0.51,1.74-0.51,2.8
				c0,0.94,0.17,1.79,0.5,2.55c0.33,0.76,0.81,1.42,1.42,1.96c0.61,0.55,1.35,0.97,2.2,1.27
				C167.07,324.57,168.01,324.72,169.05,324.72z M174.47,298.11c0-0.57-0.11-1.07-0.32-1.52c-0.22-0.45-0.51-0.83-0.88-1.13
				c-0.37-0.3-0.79-0.54-1.26-0.7c-0.47-0.17-0.97-0.25-1.49-0.25c-0.64,0-1.24,0.1-1.77,0.29c-0.54,0.2-1.01,0.46-1.41,0.79
				s-0.71,0.73-0.92,1.19c-0.22,0.46-0.32,0.95-0.32,1.48c0,1.09,0.34,2.1,1.03,3.02c0.68,0.92,1.53,1.66,2.55,2.23
				c0.64-0.23,1.26-0.51,1.83-0.82c0.58-0.31,1.09-0.68,1.52-1.11c0.44-0.43,0.79-0.93,1.06-1.5
				C174.34,299.51,174.47,298.85,174.47,298.11z"/>
			<path class="st1" d="M220.52,289.02v7.33h-3.52v27.38h3.52v7.33h-16.5v-7.33h3.52v-27.38h-3.52v-7.33H220.52z"/>
		</g>
	</g>
	<g id="Grupo_221" transform="translate(-107 -230.276)">
		<path id="Caminho_238" class="st1" d="M375.28,320.25c0-52.04-55.2-70.84-123.28-70.84s-123.28,18.8-123.28,70.84
			s55.19,97.46,123.28,97.46S375.28,372.28,375.28,320.25z"/>
		<g id="Grupo_186" transform="translate(107 230.276)">
			<path id="Caminho_240" class="st1" d="M145,190.38L145,190.38c-16.6,0.04-33.1-2.69-48.8-8.07c-14.48-4.91-28-12.28-39.97-21.79
				c-11.11-8.72-20.33-19.6-27.13-31.97c-6.52-11.83-9.97-25.1-10.04-38.61c0-13.19,3.45-24.89,10.24-34.77
				C35.61,46,44.88,38.3,56.86,32.3c21.34-10.69,51-16.11,88.14-16.11s66.81,5.42,88.15,16.11c11.97,6,21.25,13.69,27.56,22.88
				c6.8,9.88,10.24,21.58,10.24,34.77c-0.07,13.51-3.52,26.78-10.04,38.61c-6.8,12.38-16.03,23.25-27.13,31.97
				c-11.97,9.51-25.49,16.88-39.97,21.79C178.1,187.7,161.6,190.42,145,190.38z M145,23.25c-36.04,0-64.63,5.17-84.99,15.36
				c-22.5,11.27-33.91,28.54-33.91,51.33c0,50.62,54.45,93.38,118.89,93.38s118.89-42.76,118.89-93.38
				c0-22.79-11.41-40.06-33.9-51.33C209.64,28.41,181.05,23.25,145,23.25L145,23.25z"/>
		</g>
		<g id="Grupo_219" transform="translate(113.82 235.883)">
			<g>
				<defs>
					<path id="SVGID_1_" d="M256.11,84.94c0-49.77-52.8-67.76-117.92-67.76S20.26,35.16,20.26,84.94s52.8,93.23,117.92,93.23
						S256.11,134.71,256.11,84.94z"/>
				</defs>
				<clipPath id="SVGID_00000124161122344963020860000008533911013486168985_">
					<use xlink:href="#SVGID_1_"  style="overflow:visible;"/>
				</clipPath>
				
					<g id="Grupo_218" transform="translate(0 0)" style="clip-path:url(#SVGID_00000124161122344963020860000008533911013486168985_);">
					<g id="Grupo_217" transform="translate(-0.501 -28.092)">
						<g id="Grupo_216">
							<g id="Grupo_202" transform="translate(54.759 209.582)">
								<path id="Caminho_258" class="st3" d="M46.11,49.4c0,0-32.74,11.26-3.61,9.2c0,0-1.96,15.81,5.86,0.87
									c0,0,22.74,20.95,1.41-9.53L46.11,49.4z"/>
								<g id="Grupo_201">
									<path id="Caminho_259" class="st4" d="M48.95,49.81c-4.36-0.64-3.43-0.61,0.97-0.11c1.06,1.43,2.16,2.92,3.52,4.87
										c1.32,1.9,2.81,4.08,4.24,6.54c0.8,1.29,1.42,2.68,1.84,4.14c0.18,0.6-0.01,1.25-0.47,1.67c-0.54,0.28-1.17,0.29-1.72,0.04
										c-0.76-0.3-1.48-0.67-2.16-1.13c-1.31-0.85-2.57-1.78-3.78-2.77l-1.79-1.49l-0.88-0.76c-0.16-0.14-0.06-0.05-0.1-0.07
										c0.21-0.37-0.54,1.03-1.03,1.84c-0.53,0.91-1.12,1.78-1.78,2.61c-0.31,0.38-0.66,0.73-1.05,1.03
										c-0.58,0.51-1.41,0.59-2.08,0.22c-0.49-0.4-0.82-0.97-0.93-1.6c-0.1-0.45-0.16-0.9-0.19-1.36c-0.05-0.85-0.05-1.7,0-2.55
										l0.09-1.22c0.02-0.28,0.02-0.25,0.03-0.26l0.01-0.04l-0.05-0.01h-0.02l-0.17,0.01l-0.38,0.02l-1.52,0.06
										c-1.01,0.03-1.99,0.04-2.96,0.03c-1.91,0.07-3.83-0.2-5.65-0.78c-0.44-0.15-1.19-0.84-0.98-1.54
										c0.15-0.52,0.47-0.98,0.9-1.31c0.64-0.52,1.33-0.97,2.06-1.35c1.25-0.66,2.54-1.26,3.85-1.79c4.77-1.93,7.73-2.75,7.81-2.8
										c3.44-1.19,1.01-0.3-4.3,2c-1.32,0.59-2.83,1.26-4.42,2.07c-0.8,0.41-1.62,0.85-2.44,1.35c-0.82,0.45-1.56,1.03-2.19,1.72
										c-0.23,0.31-0.15,0.36,0,0.48c0.41,0.2,0.84,0.33,1.29,0.38c1.06,0.14,2.12,0.21,3.19,0.2c1.1,0,2.23-0.04,3.36-0.1
										l4.36-0.3l-0.14,1.22l-0.08,0.93l-0.06,1.21c-0.03,0.79-0.02,1.58,0.04,2.37c0.03,0.36,0.09,0.73,0.18,1.08
										c0.04,0.14,0.09,0.28,0.15,0.41c0.06,0.11,0.03,0.06,0.04,0.07c0.38-0.23,0.72-0.54,0.99-0.9c0.62-0.78,1.18-1.6,1.68-2.46
										l0.75-1.29l1.2-2.23L50,59.86l1.08,0.96c0.72,0.63,1.44,1.24,2.16,1.82c1.32,1.14,2.76,2.14,4.29,2.98
										c0.16,0.07,0.32,0.14,0.49,0.19c0.05,0.02,0.1,0.03,0.16,0.02c0.11-0.06,0.13-0.07,0.1-0.35
										c-0.15-0.74-0.39-1.46-0.72-2.14c-0.63-1.4-1.34-2.7-2.01-3.9c-2.74-4.78-4.94-8.11-5.79-9.48L48.95,49.81z"/>
								</g>
							</g>
							<g id="Grupo_204" transform="translate(130.547 207.279)">
								<path id="Caminho_260" class="st3" d="M53,48.96c0,0,34.38,4.12,5.46,8.24c0,0,5.25,15.04-5.55,2.08
									c0,0-17.82,25.28-3.38-9.02L53,48.96z"/>
								<g id="Grupo_203">
									<path id="Caminho_261" class="st4" d="M50.32,49.98c4.21-1.58,3.09-1.04-0.59,0.49c-1.01,2.73-2.92,7.42-4.45,12.72
										c-0.42,1.31-0.66,2.67-0.73,4.05c0.02,0.27,0.03,0.22,0.11,0.28c0.12-0.01,0.02,0.04,0.37-0.17
										c0.57-0.41,1.11-0.88,1.58-1.4c1.03-1.07,1.99-2.26,2.93-3.46l1.39-1.83l1.94-2.7c1.63,1.93,1.95,2.28,2.71,3.09
										c0.65,0.71,1.36,1.38,2.11,1.99c0.28,0.23,0.58,0.43,0.9,0.59c0.36,0.14,0.22,0.07,0.25,0.09c0.07-0.19,0.1-0.4,0.09-0.6
										c0.01-0.37-0.02-0.74-0.07-1.11c-0.11-0.78-0.26-1.54-0.46-2.3l-0.31-1.13l-0.28-0.89l-0.37-1.1l3.91-0.56
										c0.98-0.15,1.94-0.31,2.86-0.49c1.72-0.24,3.4-0.76,4.96-1.53c0.51-0.34,0.36-0.52-0.35-1.01
										c-0.65-0.37-1.34-0.68-2.06-0.92c-1.41-0.5-2.77-0.86-4-1.18c-4.96-1.2-8-1.67-8.09-1.71c-3.61-0.44-1.03-0.38,4.73,0.41
										c1.44,0.21,3.08,0.47,4.86,0.85c0.89,0.19,1.81,0.41,2.77,0.69c1.05,0.26,2.04,0.71,2.94,1.32
										c0.33,0.24,0.55,0.59,0.64,0.99c0.06,0.45-0.1,0.9-0.43,1.21c-0.46,0.42-0.99,0.75-1.57,0.98
										c-1.06,0.43-2.14,0.77-3.25,1.03c-1.11,0.27-2.23,0.51-3.36,0.72l-1.71,0.3l-0.76,0.12l-0.05,0.02l0.02,0.04l0.01,0.03
										l0.08,0.26l0.35,1.23c0.23,0.83,0.41,1.67,0.53,2.53c0.06,0.46,0.09,0.92,0.08,1.38c-0.01,0.27-0.05,0.53-0.12,0.79
										c-0.09,0.37-0.3,0.71-0.59,0.96c-0.32,0.25-0.73,0.37-1.13,0.32c-0.31-0.03-0.6-0.12-0.88-0.26
										c-0.42-0.21-0.81-0.46-1.18-0.75c-0.84-0.68-1.62-1.43-2.34-2.23l-1.04-1.16l-0.25-0.29c-0.1-0.12-0.03-0.04-0.05-0.06
										l-0.01-0.02l-0.01,0.01c-0.02,0.02,0.03-0.04-0.05,0.06l-0.22,0.3l-0.89,1.17c-0.6,0.77-1.21,1.51-1.82,2.24
										c-1.16,1.46-2.49,2.77-3.95,3.93c-0.21,0.15-0.43,0.28-0.66,0.39c-0.32,0.17-0.69,0.23-1.05,0.19
										c-0.75-0.09-1.04-1.04-1.01-1.57c0.02-0.86,0.16-1.71,0.39-2.54c0.41-1.55,0.91-2.96,1.4-4.26c2-5.2,3.74-8.74,4.43-10.25
										L50.32,49.98z"/>
								</g>
							</g>
							<g id="Grupo_206" transform="translate(5.723)">
								<path id="Caminho_262" class="st5" d="M134.6,266.21c-36.39,1.03-64.61-10.14-83.86-33.18
									c-21.5-25.73-42.12-80.3-18.25-194.17c0.45-2.15,0.84-4,0.95-4.68c0.57-3.58,3.05-6.57,6.47-7.79
									c0.98-0.35,2.01-0.54,3.05-0.57c2.53-0.07,5,0.83,6.89,2.52c0.33,0.29,34.88,30.4,81.45,29.09
									c27.07-0.76,55.31-20.8,79.8-42.04c1.73-1.5,3.93-2.36,6.22-2.42c1.02-0.03,2.05,0.1,3.03,0.39
									c3.23,0.94,5.77,3.44,6.74,6.66c1.62,5.35,36.93,140.61-10.94,207.01C198.14,252.01,170.7,265.2,134.6,266.21z"/>
								<g id="Grupo_205">
									<path id="Caminho_263" class="st4" d="M163.23,262.41c-5.93,1.48-11.96,2.52-18.05,3.11c-4.53,0.43-7.55,0.55-9.16,0.6
										c-3.24,0.05-0.86,0.09,6.11-0.45c4.59-0.37,9.16-0.99,13.68-1.84c6.55-1.22,12.98-3.03,19.2-5.43
										c7.91-3.04,15.36-7.18,22.12-12.3c7.98-6.1,14.89-13.49,20.45-21.85c6.22-9.52,11.03-19.88,14.28-30.77
										c3.59-11.92,6-24.16,7.21-36.54c2.66-25.68,1.51-53.3-2.1-81.21c-1.82-13.96-4.24-28.01-7.32-41.97
										c-0.77-3.49-1.58-6.97-2.47-10.43c-0.33-1.69-0.87-3.34-1.61-4.9c-0.81-1.45-2-2.65-3.45-3.48
										c-2.94-1.67-6.56-1.58-9.42,0.23c-0.71,0.48-1.38,1.01-2.01,1.59l-2.04,1.75l-4.11,3.46
										c-11.01,9.13-22.51,17.67-34.88,24.44c-12.31,6.71-25.78,11.74-39.55,11.86c-13.44,0.15-26.8-2.05-39.48-6.5
										C78.35,47.53,66.71,41.57,56.07,34.1c-2.59-1.81-5.19-3.83-7.51-5.78c-2.39-1.71-5.45-2.18-8.24-1.25
										c-2.76,0.93-4.91,3.11-5.81,5.88c-0.2,0.71-0.36,1.44-0.47,2.17l-0.47,2.26l-0.94,4.49c-2.46,11.93-4.51,23.67-6.15,35.2
										c-3.25,21.77-4.53,43.8-3.85,65.8c0.83,20.63,4.01,39.8,9.86,56.38c5.79,16.58,14.43,30.39,24.46,40.15
										c8.57,8.45,18.78,15.05,30.01,19.39c7.17,2.77,14.62,4.75,22.21,5.93c5.29,0.82,8.22,1,8.48,1.04
										c5.61,0.46,11.24,0.62,16.86,0.49c0.71-0.04-3.26,0.28-11.13,0.01c-11.54-0.35-22.96-2.41-33.89-6.11
										c-7.78-2.69-15.16-6.43-21.92-11.13c-7.89-5.52-14.83-12.29-20.55-20.02c-6.36-8.74-11.43-18.35-15.05-28.53
										C28,189.37,25.2,177.9,23.6,166.22c-3.47-24.18-2.99-50.35-0.06-76.96c1.47-13.31,3.56-26.76,6.13-40.23l2.02-10.1
										c0.34-1.68,0.72-3.37,1.01-5.03c0.32-1.84,1.11-3.56,2.31-4.99c2.44-2.92,6.24-4.33,9.99-3.71
										c1.85,0.31,3.58,1.1,5.03,2.29c1.32,1.14,2.64,2.18,4.02,3.21c22.04,16.23,49.17,26.42,76.03,25.94
										c13.38-0.13,26.12-4.92,37.59-10.98c11.27-6.21,21.94-13.45,31.88-21.62c2.47-1.98,4.9-3.99,7.3-6.02l3.57-3.05
										c1.26-1.12,2.76-1.93,4.38-2.38c3.28-0.88,6.79-0.15,9.44,1.97c1.3,1.03,2.34,2.36,3.03,3.87
										c0.57,1.47,1.03,2.98,1.36,4.52c2.96,11.87,5.24,23.61,7.14,35.11c3.66,21.77,5.63,43.8,5.91,65.87
										c0.14,20.73-1.63,40.09-5.61,57.3c-3.94,17.2-10.22,32.2-18.21,43.79c-6.78,10.01-15.51,18.55-25.66,25.11
										c-6.5,4.13-13.47,7.46-20.78,9.9C166.36,261.69,163.48,262.32,163.23,262.41z"/>
								</g>
							</g>
							<path id="Caminho_264" class="st6" d="M140.01,253.1c-33.94,0.95-60.25-9.01-78.18-29.62
								c-20.03-23.01-39.2-71.85-16.81-173.83c0.42-1.93,0.79-3.59,0.89-4.19c0.58-3.26,2.9-5.95,6.04-6.99
								c0.91-0.31,1.87-0.49,2.84-0.51c2.34-0.08,4.63,0.72,6.42,2.24c0.31,0.26,32.5,27.18,75.94,25.96
								c25.25-0.71,51.61-18.68,74.47-37.72c1.64-1.35,3.68-2.12,5.81-2.17c0.95-0.03,1.91,0.09,2.83,0.34
								c2.97,0.79,5.33,3.03,6.28,5.95c1.5,4.78,34.3,125.85-10.42,185.35C199.27,240.31,173.67,252.14,140.01,253.1z"/>
							<g id="Grupo_207" transform="translate(20.642 27.06)">
								<path id="Caminho_265" class="st7" d="M33.6,50.23c-2.1,0.06-4.17-0.58-5.86-1.82c-3.01-2.2-4.47-5.95-3.71-9.6l2.95-14.24
									c0.66-3.19,2.91-5.81,5.96-6.96c0.99-0.37,2.02-0.58,3.08-0.61c2.16-0.06,4.27,0.61,5.99,1.91l9.52,7.18
									c2.55,1.93,3.96,5.01,3.75,8.2c-0.21,3.2-2.01,6.07-4.8,7.65L38.01,49C36.66,49.76,35.14,50.18,33.6,50.23z"/>
							</g>
							<g id="Grupo_208" transform="translate(149.433 17.824)">
								<path id="Caminho_266" class="st7" d="M69.25,52.95c2.1-0.06,4.12-0.81,5.75-2.14c2.89-2.36,4.12-6.19,3.16-9.8l-1.72-18.6
									c-0.84-3.15-3.23-5.64-6.34-6.62c-1-0.31-2.05-0.46-3.11-0.43c-2.16,0.06-4.23,0.85-5.87,2.25L50,29.88
									c-2.44,2.07-3.68,5.23-3.29,8.4c0.39,3.17,2.35,5.94,5.22,7.36l12.84,6.34C66.16,52.67,67.7,53,69.25,52.95z"/>
							</g>
							<path id="Caminho_267" class="st7" d="M61.83,223.47c17.93,20.61,44.24,30.58,78.18,29.62c33.67-0.95,59.27-12.78,76.1-35.17
								c2.91-3.9,5.51-8.03,7.76-12.35c-19.25,7.68-50.73,11.32-85.16-20.93c0,0-38.77,35.55-89.36,19.96
								C52.7,211.4,56.89,217.74,61.83,223.47z"/>
							<g id="Grupo_209" transform="translate(49.87 159.681)">
								<path id="Caminho_268" class="st8" d="M48.79,50.83c0,0,10.91,9.77,21.25-0.6C70.03,50.24,59.55,70.12,48.79,50.83z"/>
								<path id="Caminho_269" class="st8" d="M77.05,41.08c0,0,10.91,9.77,21.25-0.6C98.3,40.48,87.82,60.37,77.05,41.08z"/>
								<path id="Caminho_270" class="st8" d="M104.73,50.37c0,0,10.91,9.76,21.25-0.59C125.98,49.77,115.5,69.66,104.73,50.37z"/>
								<path id="Caminho_271" class="st8" d="M88.3,63.15c0,0,10.9,9.77,21.25-0.6C109.55,62.55,99.08,82.43,88.3,63.15z"/>
								<path id="Caminho_272" class="st8" d="M59.28,65.64c0,0,10.91,9.77,21.25-0.6C80.52,65.04,70.05,84.93,59.28,65.64z"/>
								<path id="Caminho_273" class="st8" d="M75.36,80.3c0,0,10.91,9.77,21.25-0.6C96.61,79.71,86.12,99.58,75.36,80.3z"/>
								<path id="Caminho_274" class="st8" d="M121.98,66.68c0,0,10.91,9.77,21.25-0.6C143.23,66.08,132.75,85.97,121.98,66.68z"/>
								<path id="Caminho_275" class="st8" d="M29,63.7c0,0,10.91,9.76,21.25-0.6C50.25,63.1,39.77,82.98,29,63.7z"/>
								<path id="Caminho_276" class="st8" d="M101.61,78.44c0,0,10.91,9.77,21.25-0.59C122.85,77.85,112.37,97.73,101.61,78.44z"/>
								<path id="Caminho_277" class="st8" d="M46.23,79.44c0,0,10.91,9.77,21.25-0.6C67.48,78.84,57,98.73,46.23,79.44z"/>
							</g>
							<g id="Grupo_210" transform="translate(0 119.54)">
								<path id="Caminho_278" class="st8" d="M39.95,43.73c0,0,10.9,9.76,21.25-0.6C61.2,43.13,50.72,63.01,39.95,43.73z"/>
								<path id="Caminho_279" class="st8" d="M68.22,33.97c0,0,10.91,9.77,21.25-0.6C89.47,33.38,78.99,53.26,68.22,33.97z"/>
								<path id="Caminho_280" class="st8" d="M95.9,43.26c0,0,10.91,9.77,21.25-0.59C117.15,42.67,106.67,62.55,95.9,43.26z"/>
								<path id="Caminho_281" class="st8" d="M79.47,56.04c0,0,10.91,9.77,21.25-0.6C100.72,55.44,90.24,75.32,79.47,56.04z"/>
								<path id="Caminho_282" class="st8" d="M50.44,58.54c0,0,10.9,9.76,21.25-0.6C71.69,57.93,61.21,77.82,50.44,58.54z"/>
								<path id="Caminho_283" class="st8" d="M66.53,73.19c0,0,10.91,9.77,21.25-0.6C87.77,72.6,77.3,92.48,66.53,73.19z"/>
								<path id="Caminho_284" class="st8" d="M113.15,59.57c0,0,10.91,9.77,21.25-0.6C134.4,58.97,123.92,78.86,113.15,59.57z"/>
								<path id="Caminho_285" class="st8" d="M20.17,56.59c0,0,10.91,9.77,21.25-0.6C41.42,55.99,30.94,75.87,20.17,56.59z"/>
								<path id="Caminho_286" class="st8" d="M92.77,71.33c0,0,10.91,9.77,21.25-0.59C114.02,70.74,103.54,90.62,92.77,71.33z"/>
								<path id="Caminho_287" class="st8" d="M37.4,72.33c0,0,10.91,9.77,21.25-0.6C58.65,71.73,48.17,91.62,37.4,72.33z"/>
							</g>
							<g id="Grupo_211" transform="translate(106.865 119.54)">
								<path id="Caminho_288" class="st8" d="M58.88,43.73c0,0,10.9,9.76,21.25-0.6C80.13,43.13,69.65,63.01,58.88,43.73z"/>
								<path id="Caminho_289" class="st8" d="M87.14,33.97c0,0,10.91,9.77,21.25-0.6C108.4,33.38,97.91,53.26,87.14,33.97z"/>
								<path id="Caminho_290" class="st8" d="M114.83,43.26c0,0,10.91,9.77,21.25-0.59C136.07,42.67,125.59,62.55,114.83,43.26z"/>
								<path id="Caminho_291" class="st8" d="M98.4,56.04c0,0,10.91,9.77,21.25-0.6C119.65,55.44,109.17,75.32,98.4,56.04z"/>
								<path id="Caminho_292" class="st8" d="M69.37,58.54c0,0,10.91,9.76,21.25-0.6C90.62,57.93,80.14,77.82,69.37,58.54z"/>
								<path id="Caminho_293" class="st8" d="M85.45,73.19c0,0,10.91,9.77,21.25-0.6C106.7,72.6,96.22,92.48,85.45,73.19z"/>
								<path id="Caminho_294" class="st8" d="M132.07,59.57c0,0,10.91,9.77,21.25-0.6C153.32,58.97,142.84,78.86,132.07,59.57z"/>
								<path id="Caminho_295" class="st8" d="M39.1,56.59c0,0,10.91,9.77,21.25-0.6C60.35,55.99,49.86,75.87,39.1,56.59z"/>
								<path id="Caminho_296" class="st8" d="M111.7,71.33c0,0,10.91,9.77,21.25-0.59C132.95,70.74,122.47,90.62,111.7,71.33z"/>
								<path id="Caminho_297" class="st8" d="M56.33,72.33c0,0,10.91,9.77,21.25-0.6C77.58,71.73,67.1,91.62,56.33,72.33z"/>
							</g>
							<g id="Grupo_215" transform="translate(23.844 52.608)">
								<g id="Grupo_212" transform="translate(1.858 0.175)">
									<path id="Caminho_298" class="st1" d="M154.19,21.57c-18.14,0.51-34.33,11.55-41.42,28.26
										c-8.02-16.28-24.8-26.4-42.94-25.88c-25.62,0.72-45.81,22.08-45.09,47.7c0.72,25.62,22.08,45.81,47.7,45.09c0,0,0,0,0,0
										c18.14-0.51,34.33-11.55,41.42-28.26c8.02,16.28,24.8,26.4,42.94,25.88c25.62-0.72,45.81-22.08,45.09-47.7l0,0
										C201.17,41.04,179.82,20.85,154.19,21.57L154.19,21.57z"/>
								</g>
								<path id="Caminho_299" class="st9" d="M157.09,21.54c-18.46,0.44-35.01,11.5-42.46,28.39
									c-8.39-16.45-25.53-26.57-43.98-25.96c-26.26,0.74-46.95,22.19-46.23,47.92s22.6,45.97,48.86,45.23
									c18.46-0.43,35-11.5,42.45-28.39c8.39,16.45,25.53,26.56,43.99,25.96c26.26-0.74,46.96-22.19,46.23-47.91
									C205.22,41.06,183.35,20.8,157.09,21.54z M157.01,111.94c-17.34,0.57-33.44-8.93-41.32-24.38
									c-7,15.87-22.54,26.26-39.88,26.67c-24.67,0.7-45.22-18.33-45.9-42.49c-0.68-24.16,18.77-44.31,43.44-45.01
									c17.33-0.57,33.44,8.94,41.32,24.38c7-15.87,22.54-26.26,39.88-26.67c24.66-0.7,45.22,18.33,45.89,42.49
									S181.67,111.24,157.01,111.94L157.01,111.94z"/>
								<g id="Grupo_214" transform="translate(66.217 42.341)">
									<path id="Caminho_300" class="st10" d="M49.17,66.07c-1.6-0.05-3.05-0.99-3.73-2.44l-8.48-21.17
										c-0.96-1.87-0.8-4.11,0.43-5.81c0.52-0.7,5.31-6.82,12.14-7.01c2.96-0.08,7.39,0.98,11.67,6.5
										c1.24,1.68,1.45,3.91,0.55,5.79l-8.9,21.66c-0.64,1.44-2.02,2.39-3.59,2.48L49.17,66.07z"/>
									<path id="Caminho_301" class="st8" d="M49.03,59.97c-1.46,0.01-2.82-0.75-3.57-2L37.41,40.5
										c-0.91-1.53-0.74-3.47,0.43-4.81c0.51-0.58,5.12-5.65,11.67-5.84c2.84-0.08,7.08,0.78,11.16,5.33
										c1.18,1.32,1.38,3.24,0.51,4.78L52.56,57.9c-0.71,1.24-2.02,2.03-3.45,2.07C49.09,59.97,49.06,59.97,49.03,59.97z"/>
									<g id="Grupo_213">
										<path id="Caminho_302" class="st11" d="M51.75,58.89c-0.6,0.54-1.34,0.89-2.14,1.01c-0.46,0.04-0.61,0.03-0.49,0
											c0.38-0.06,0.75-0.16,1.12-0.29c0.78-0.3,1.45-0.83,1.92-1.53l8.41-18.39l0.02-0.03l0.01-0.02
											c0.63-1.16,0.54-2.57-0.22-3.64c-0.96-1.13-2.06-2.13-3.28-2.97c-2.37-1.69-5.25-2.5-8.15-2.3
											c-2.53,0.24-4.96,1.12-7.06,2.55c-1.02,0.67-1.97,1.43-2.85,2.27c-0.41,0.36-0.77,0.77-1.05,1.23
											c-0.25,0.43-0.4,0.92-0.44,1.41c-0.04,0.49,0.02,0.98,0.19,1.44c0.1,0.25,0.21,0.5,0.33,0.74l0.34,0.77l1.3,2.99
											l2.32,5.38l3.3,7.84c0.35,1.01,1.1,1.84,2.07,2.28c0.53,0.21,1.1,0.34,1.67,0.38c-0.38,0.07-0.78,0.05-1.15-0.06
											c-1.22-0.27-2.25-1.06-2.83-2.17l-2.41-4.86l-3.01-6.17l-1.67-3.44l-0.86-1.79c-0.14-0.29-0.3-0.65-0.43-0.87
											c-0.19-0.34-0.34-0.71-0.44-1.09c-0.41-1.6,0.01-3.29,1.13-4.5c0.98-1.08,2.08-2.05,3.27-2.89
											c2.38-1.74,5.19-2.82,8.12-3.1c3.47-0.23,6.9,0.83,9.62,3c0.63,0.49,1.24,1.02,1.8,1.58c0.6,0.56,1.12,1.18,1.56,1.87
											c0.83,1.48,0.81,3.3-0.05,4.76l0.02-0.04c-2.83,5.6-5.25,10.27-6.97,13.56l-2.02,3.84
											C52.51,58.13,52.16,58.56,51.75,58.89z"/>
									</g>
								</g>
							</g>
						</g>
						<path id="Caminho_303" class="st12" d="M197.97,117.55c-1.65,9.17-10.43,15.27-19.6,13.61c0,0,0,0,0,0
							c-9.17-1.65-15.27-10.43-13.61-19.6c1.65-9.17,10.43-15.27,19.6-13.62c0,0,0,0,0.01,0
							C193.52,99.6,199.62,108.37,197.97,117.55C197.97,117.55,197.97,117.55,197.97,117.55z"/>
						<path id="Caminho_304" class="st1" d="M190.54,110.49c-0.55,3.06-3.48,5.09-6.54,4.54c-3.06-0.55-5.09-3.47-4.54-6.53
							c0,0,0,0,0-0.01c0.55-3.06,3.47-5.09,6.53-4.54c0,0,0,0,0.01,0C189.06,104.5,191.09,107.43,190.54,110.49
							C190.54,110.49,190.54,110.49,190.54,110.49z"/>
						<path id="Caminho_305" class="st12" d="M113.64,125.78c-1.66,9.17-10.43,15.27-19.61,13.61
							c-9.17-1.66-15.27-10.43-13.61-19.61c1.66-9.17,10.43-15.27,19.61-13.61C109.2,107.82,115.3,116.6,113.64,125.78
							C113.64,125.77,113.64,125.77,113.64,125.78z"/>
						<path id="Caminho_306" class="st1" d="M106.22,118.71c-0.55,3.06-3.48,5.09-6.54,4.54c-3.06-0.55-5.09-3.47-4.54-6.53
							c0,0,0-0.01,0-0.01c0.55-3.05,3.47-5.09,6.52-4.54c0,0,0.01,0,0.01,0C104.74,112.72,106.77,115.65,106.22,118.71
							C106.22,118.7,106.22,118.71,106.22,118.71z"/>
					</g>
				</g>
			</g>
		</g>
	</g>
</g>
</svg>
