<?xml version="1.0" encoding="utf-8"?>
<!-- Generator: Adobe Illustrator 26.0.1, SVG Export Plug-In . SVG Version: 6.00 Build 0)  -->
<svg version="1.1" id="Layer_1" xmlns="http://www.w3.org/2000/svg" xmlns:xlink="http://www.w3.org/1999/xlink" x="0px" y="0px"
	 viewBox="0 0 841.5 123.9" style="enable-background:new 0 0 841.5 123.9;" xml:space="preserve">
<style type="text/css">
	.st0{enable-background:new    ;}
	.st1{fill:#FFFFFF;}
</style>
<g>
	<g class="st0">
		<path class="st1" d="M55.4,64.8H10.5c0.2,7.1,2.1,12.5,5.7,16.4c3.6,3.8,8.6,5.8,15,5.8c7.1,0,13.7-2.4,19.7-7.1v9.5
			c-5.6,4-13,6.1-22.1,6.1c-9,0-16-2.9-21.1-8.7C2.6,81.1,0,73,0,62.5c0-9.9,2.8-17.9,8.4-24.2C14,32.1,20.9,29,29.3,29
			s14.7,2.7,19.3,8.1c4.5,5.4,6.8,12.8,6.8,22.4L55.4,64.8L55.4,64.8z M45,56.2c0-5.9-1.5-10.4-4.2-13.7c-2.8-3.3-6.7-4.9-11.6-4.9
			c-4.8,0-8.9,1.7-12.2,5.1c-3.3,3.4-5.4,7.9-6.2,13.5L45,56.2L45,56.2z"/>
		<path class="st1" d="M142.5,94h-10.2V57.8c0-13.5-4.9-20.2-14.7-20.2c-5.1,0-9.3,1.9-12.6,5.7s-5,8.7-5,14.5V94H89.8V30.5H100
			v10.5h0.2c4.8-8,11.7-12,20.8-12c6.9,0,12.2,2.2,15.9,6.7c3.7,4.5,5.5,11,5.5,19.4L142.5,94L142.5,94z"/>
		<path class="st1" d="M190.9,94h-10.2V0h10.2V94z"/>
		<path class="st1" d="M235.7,14.4c-1.8,0-3.4-0.6-4.7-1.9c-1.3-1.2-1.9-2.8-1.9-4.7s0.6-3.5,1.9-4.7s2.8-1.9,4.7-1.9
			c1.9,0,3.4,0.6,4.7,1.9c1.3,1.3,2,2.8,2,4.7c0,1.8-0.6,3.4-2,4.7C239.1,13.8,237.6,14.4,235.7,14.4z M240.7,94h-10.2V30.5h10.2V94
			z"/>
		<path class="st1" d="M334.5,88.9c0,23.3-11.2,35-33.5,35c-7.9,0-14.7-1.5-20.6-4.5v-10.2c7.1,4,14,5.9,20.5,5.9
			c15.6,0,23.4-8.3,23.4-24.9v-6.9h-0.2c-4.8,8.1-12.1,12.1-21.8,12.1c-7.9,0-14.3-2.8-19.1-8.5c-4.8-5.6-7.2-13.2-7.2-22.7
			c0-10.8,2.6-19.4,7.8-25.7S296,29,305,29c8.6,0,14.9,3.4,19,10.3h0.2v-8.8h10.2L334.5,88.9L334.5,88.9z M324.3,65.3V56
			c0-5-1.7-9.4-5.1-13c-3.4-3.6-7.7-5.4-12.7-5.4c-6.3,0-11.2,2.3-14.7,6.8c-3.6,4.6-5.3,11-5.3,19.2c0,7.1,1.7,12.7,5.1,17
			c3.4,4.2,7.9,6.4,13.5,6.4c5.7,0,10.3-2,13.9-6.1C322.5,76.8,324.3,71.6,324.3,65.3z"/>
		<path class="st1" d="M426.8,94h-10.2V57.4c0-13.2-4.9-19.8-14.7-19.8c-5,0-9.1,1.9-12.5,5.7s-5.1,8.7-5.1,14.7v36h-10.2V0h10.2v41
			h0.2c4.9-8,11.8-12,20.8-12c14.3,0,21.4,8.6,21.4,25.9L426.8,94L426.8,94z"/>
		<path class="st1" d="M494.5,93.4c-2.4,1.3-5.6,2-9.5,2c-11.1,0-16.7-6.2-16.7-18.6V39.2h-10.9v-8.7h10.9V15l10.2-3.3v18.8h16v8.7
			h-16V75c0,4.3,0.7,7.3,2.2,9.1c1.4,1.8,3.8,2.7,7.2,2.7c2.6,0,4.8-0.7,6.6-2.1L494.5,93.4L494.5,93.4z"/>
	</g>
	<g class="st0">
		<path class="st1" d="M547,63.4V94h-20V5.1h31.4c22.4,0,33.6,9.5,33.6,28.3c0,8.9-3.2,16.1-9.6,21.7c-6.4,5.5-15,8.3-25.8,8.3H547z
			 M547,20.5v27.7h7.9c10.7,0,16-4.7,16-14c0-9.1-5.3-13.7-16-13.7L547,20.5L547,20.5z"/>
		<path class="st1" d="M607.5,94V5.1H639c31.6,0,47.4,14.4,47.4,43.3c0,13.8-4.3,24.9-12.9,33.2C664.8,89.9,653.3,94,639,94H607.5z
			 M627.5,21.4v56.4h9.9c8.7,0,15.5-2.6,20.4-7.8c4.9-5.2,7.4-12.3,7.4-21.3c0-8.5-2.5-15.1-7.3-20s-11.8-7.3-20.6-7.3H627.5z"/>
		<path class="st1" d="M785.2,95.4c-2.2,0-4.3-0.3-6.2-0.9c-2-0.6-3.8-1.4-5.6-2.4c-1.8-1-3.4-2.2-5-3.5c-1.6-1.3-3.1-2.8-4.5-4.3
			c-1.5,1.2-3.4,2.5-5.5,3.8c-2.2,1.3-4.6,2.5-7.3,3.6c-2.7,1.1-5.7,1.9-9,2.6c-3.3,0.7-6.8,1-10.5,1c-4.8,0-9.3-0.6-13.4-1.7
			c-4.1-1.2-7.7-2.9-10.6-5.2c-3-2.3-5.3-5.1-7-8.5c-1.7-3.4-2.5-7.3-2.5-11.8c0-3.5,0.6-6.6,1.9-9.4c1.3-2.8,2.9-5.1,4.9-7.2
			c2-2.1,4.3-3.8,6.9-5.3c2.6-1.5,5.2-2.7,7.8-3.7c-1.3-1-2.6-2.1-3.9-3.4c-1.3-1.3-2.5-2.7-3.5-4.3c-1-1.6-1.9-3.2-2.5-5.1
			c-0.6-1.8-1-3.7-1-5.8c0-3.3,0.7-6.2,2-8.7c1.3-2.5,3.2-4.7,5.6-6.4c2.4-1.7,5.2-3.1,8.5-4c3.3-0.9,6.9-1.4,10.9-1.4
			c3.8,0,7.3,0.5,10.4,1.4c3.2,0.9,5.9,2.3,8.2,4s4,3.7,5.3,6.1s1.9,5,1.9,7.8c0,4.6-1.4,8.6-4.1,11.9c-2.8,3.4-6.6,6.1-11.6,8.2
			c2,0.9,3.9,1.9,5.7,3.1c1.8,1.2,3.6,2.5,5.3,4c1.7,1.5,3.4,3.2,5.1,5.1c1.7,1.9,3.3,4,4.9,6.5c3.4-4.3,5.8-8.8,7.3-13.6
			c1.5-4.8,2.2-9.8,2.2-15c0-1.6-0.1-3.1-0.3-4.5c-0.2-1.4-0.5-2.8-0.9-4h16.7c0.5,1.3,0.8,2.6,1,3.8c0.2,1.2,0.3,2.7,0.3,4.4
			c0,4-0.4,7.9-1.3,11.7c-0.8,3.8-2,7.4-3.6,10.9c-1.5,3.5-3.4,6.8-5.6,9.9c-2.2,3.1-4.6,6-7.2,8.7c2,2.1,4.1,3.7,6.3,4.9
			c2.2,1.1,4.2,1.7,6.1,1.7c2,0,4-0.2,6.1-0.6c2.1-0.4,3.9-1,5.4-1.8v14.7c-2.3,0.9-4.5,1.6-6.7,2C790.4,95.2,787.9,95.4,785.2,95.4
			z M732.7,80.6c2.4,0,4.7-0.2,6.9-0.7c2.2-0.5,4.2-1.1,6.1-1.9c1.9-0.8,3.7-1.7,5.3-2.7c1.6-1,3.1-2.1,4.5-3.2
			c-2.1-3.3-4.2-6.1-6.3-8.4s-4.1-4.3-6.1-5.9c-2-1.6-4-3-6-4.1c-2-1.1-4-2.1-6-3c-1.7,0.8-3.3,1.7-4.9,2.8c-1.6,1-2.9,2.2-4.1,3.5
			c-1.2,1.3-2.2,2.9-2.9,4.6c-0.7,1.7-1.1,3.7-1.1,5.9c0,2,0.3,3.8,1.1,5.4c0.7,1.6,1.7,3,3,4.2c1.3,1.2,2.9,2.1,4.7,2.7
			C728.5,80.3,730.5,80.6,732.7,80.6z M744.1,24.3c0-1.2-0.2-2.3-0.7-3.2s-1.1-1.7-1.9-2.4c-0.8-0.6-1.7-1.1-2.7-1.5
			c-1-0.3-2-0.5-3.2-0.5c-1.4,0-2.6,0.2-3.7,0.6c-1.1,0.4-2.1,1-3,1.7c-0.8,0.7-1.5,1.5-2,2.5c-0.5,1-0.7,2-0.7,3.1
			c0,2.3,0.7,4.4,2.2,6.4c1.4,1.9,3.3,3.5,5.4,4.7c1.4-0.5,2.6-1.1,3.9-1.7c1.2-0.7,2.3-1.4,3.2-2.4c0.9-0.9,1.7-2,2.2-3.2
			C743.8,27.3,744.1,25.9,744.1,24.3z"/>
		<path class="st1" d="M841.5,5.1v15.5h-7.4v57.9h7.4V94h-34.9V78.5h7.4V20.6h-7.4V5.1H841.5z"/>
	</g>
</g>
</svg>
